SplineFontDB: 1.0
FontName: Kinnari-Oblique
FullName: Kinnari Oblique
FamilyName: Kinnari
Weight: Medium
Copyright: KinnariItalic by Db Type : Fontographer 3.5
Version: 001.000
ItalicAngle: -12
UnderlinePosition: -70
UnderlineWidth: 25
Ascent: 800
Descent: 200
NeedsXUIDChange: 1
FSType: 0
PfmFamily: 17
TTFWeight: 500
TTFWidth: 5
Panose: 0 0 0 0 0 0 0 0 0 0
LineGap: 138
VLineGap: 0
OS2WinAscent: 0
OS2WinAOffset: 1
OS2WinDescent: 0
OS2WinDOffset: 1
HheadAscent: 0
HheadAOffset: 1
HheadDescent: 0
HheadDOffset: 1
ScriptLang: 5
 1 DFLT 1 dflt 
 1 thai 4 KUY  PAL  THA  dflt 
 1 latn 1 dflt 
 1 thai 1 dflt 
 1 thai 1 PAL  
ContextSub: glyph 0 4 ' RQD' 0 0 0 1
 String: 15 uni0E0D uni0E10
 BString: 0 
 FString: 0 
 1
  SeqLookup: 0 'nds0'
EndFPST
ChainSub: coverage 0 1 'ccmp' 0 0 0 1
 2 0 0
  Coverage: 19 uni0E4B uni0E4B.low
  Coverage: 7 uni0E4D
 2
  SeqLookup: 0 'amni'
  SeqLookup: 1 'G006'
EndFPST
ChainSub: coverage 0 1 'ccmp' 0 0 0 1
 2 0 0
  Coverage: 19 uni0E4A uni0E4A.low
  Coverage: 7 uni0E4D
 2
  SeqLookup: 0 'amni'
  SeqLookup: 1 'G005'
EndFPST
ChainSub: coverage 0 1 'ccmp' 0 0 0 1
 2 0 0
  Coverage: 19 uni0E49 uni0E49.low
  Coverage: 7 uni0E4D
 2
  SeqLookup: 0 'amni'
  SeqLookup: 1 'G004'
EndFPST
ChainSub: coverage 0 1 'ccmp' 0 0 0 1
 2 0 0
  Coverage: 19 uni0E48 uni0E48.low
  Coverage: 7 uni0E4D
 2
  SeqLookup: 0 'amni'
  SeqLookup: 1 'G003'
EndFPST
ChainSub: coverage 0 1 'ccmp' 0 0 0 1
 1 0 1
  Coverage: 15 uni0E0D uni0E10
  FCoverage: 23 uni0E38 uni0E39 uni0E3A
 1
  SeqLookup: 0 'ndsc'
EndFPST
ChainSub: coverage 0 1 'ccmp' 0 0 0 1
 1 2 0
  Coverage: 39 uni0E48 uni0E49 uni0E4A uni0E4B uni0E4C
  BCoverage: 23 uni0E38 uni0E39 uni0E3A

StartChar: .notdef
Encoding: 0 0 0
Width: 384
Flags: W
HStem: 0 23<28 384> 568 23<126 482>
DStem: 126 591 144 568 0 0 28 23 482 568 510 591 366 23 384 0
Fore
144 568 m 1
 28 23 l 1
 366 23 l 1
 482 568 l 1
 144 568 l 1
384 0 m 1
 0 0 l 1
 126 591 l 1
 510 591 l 1
 384 0 l 1
EndSplineSet
EndChar
StartChar: exclam
Encoding: 33 33 2
Width: 333
Flags: W
HStem: -14 115<163 195>
Fore
379 596 m 0
 379 596 l 0
 375 579 369 562 362 547 c 2
 221 177 l 1
 207 177 l 1
 263 547 l 1
 267 562 269 579 273 596 c 0
 283 628 306 676 349 676 c 0
 395 676 389 628 379 596 c 0
235 41 m 0
 227 9 194 -14 163 -14 c 0
 135 -14 112 11 120 41 c 0
 129 74 161 101 195 101 c 0
 227 101 244 74 235 41 c 0
EndSplineSet
EndChar
StartChar: quotedbl
Encoding: 34 34 3
Width: 407
Flags: W
HStem: 444 21G<221 241 402 422>
Fore
508 641 m 0
 422 444 l 1
 402 444 l 1
 422 641 l 1
 424 662 453 684 476 684 c 0
 501 684 518 662 508 641 c 0
329 641 m 1
 241 444 l 1
 221 444 l 1
 243 641 l 1
 243 662 272 684 296 684 c 0
 319 684 336 662 329 641 c 1
EndSplineSet
EndChar
StartChar: numbersign
Encoding: 35 35 4
Width: 499
Flags: W
HStem: 0 21G<78 137 272 330> 217 53<76 169 250 361 442 528> 217 242<154 361 330 528> 404 55<153 249 330 439 521 602>
DStem: 169 217 227 217 78 0 137 0 249 404 307 404 192 270 250 270 356 662 415 662 272 459 330 459 361 217 419 217 272 0 330 0 439 404 498 404 384 270 442 270 547 662 604 662 462 459 521 459
Fore
602 404 m 1x90
 498 404 l 1
 442 270 l 1
 542 270 l 1
 528 217 l 1xd0
 419 217 l 1xa0
 330 0 l 1
 272 0 l 1
 361 217 l 1xc0
 227 217 l 1xa0
 137 0 l 1
 78 0 l 1
 169 217 l 1xc0
 63 217 l 1xa0
 77 270 l 1
 192 270 l 1
 249 404 l 1
 138 404 l 1xd0
 154 459 l 1
 272 459 l 1
 356 662 l 1
 415 662 l 1
 330 459 l 1
 462 459 l 1
 547 662 l 1
 604 662 l 1
 521 459 l 1xa0
 617 459 l 1
 602 404 l 1x90
439 404 m 1
 307 404 l 1
 250 270 l 1
 384 270 l 1
 439 404 l 1
EndSplineSet
EndChar
StartChar: dollar
Encoding: 36 36 5
Width: 499
Flags: W
HStem: -88 116<229 241> 0 28<228 238>
DStem: 230 0 264 0 207 -88 241 -88 313 310 343 293 238 28 272 28 401 636 435 636 339 407 369 390 425 727 459 727 407 662 441 662
Fore
504 178 m 0x80
 504 178 l 0
 473 65 369 8 264 0 c 1x40
 241 -88 l 1
 207 -88 l 1x80
 230 0 l 1x40
 164 0 104 17 58 51 c 1
 94 181 l 1
 109 181 l 1
 98 88 140 29 238 28 c 1
 313 310 l 1
 249 353 161 407 189 508 c 0
 215 610 316 659 407 662 c 1
 425 727 l 1
 459 727 l 1
 441 662 l 1
 498 660 553 645 587 610 c 1
 558 499 l 1
 544 499 l 1
 551 576 511 631 435 636 c 1
 369 390 l 1
 444 343 536 296 504 178 c 0x80
339 407 m 0
 401 636 l 0
 367 636 287 596 270 533 c 0
 252 467 303 441 339 407 c 0
419 152 m 0
 438 223 390 263 343 293 c 1
 272 28 l 1
 343 37 399 81 419 152 c 0
EndSplineSet
EndChar
StartChar: percent
Encoding: 37 37 6
Width: 832
Flags: W
HStem: -14 31<573 591> 287 36<257 286> 324 32<758 769> 633 29<448 455>
DStem: 713 610 814 676 198 -14 246 -14
Fore
814 676 m 1
 246 -14 l 1
 198 -14 l 1
 713 610 l 1
 647 585 571 578 535 593 c 1
 531 578 533 556 528 539 c 0
 492 404 344 287 257 287 c 0
 180 287 152 338 175 424 c 0
 204 531 341 662 453 662 c 0
 487 662 505 653 525 630 c 0
 545 610 567 607 599 607 c 0
 659 607 722 633 766 676 c 1
 814 676 l 1
837 247 m 0
 837 247 l 0
 796 91 659 -14 573 -14 c 0
 470 -14 461 48 481 123 c 0
 510 230 648 356 760 356 c 0
 828 356 851 300 837 247 c 0
505 553 m 0
 505 553 l 0
 510 570 510 584 510 599 c 1
 475 610 467 633 450 633 c 0
 413 633 280 533 243 396 c 0
 232 353 237 323 286 323 c 1
 386 332 481 456 505 553 c 0
809 241 m 0
 820 281 809 324 763 324 c 0
 710 324 657 269 624 224 c 0
 539 111 511 17 591 17 c 0
 685 17 788 161 809 241 c 0
EndSplineSet
EndChar
StartChar: ampersand
Encoding: 38 38 7
Width: 777
Flags: W
HStem: -14 54<217 273> 644 32<521 538>
Fore
776 100 m 1
 776 100 l 0
 710 26 664 -14 596 -14 c 0
 527 -14 482 31 450 78 c 1
 379 25 295 -14 217 -14 c 0
 104 -14 55 43 81 144 c 0
 112 258 253 339 338 376 c 1
 333 422 329 468 341 516 c 0
 364 604 447 676 536 676 c 0
 608 676 659 633 639 556 c 0
 614 467 519 415 439 384 c 1
 456 312 481 243 515 178 c 1
 561 220 641 303 654 358 c 0
 664 387 651 404 604 407 c 1
 608 425 l 1
 823 425 l 1
 819 407 l 1
 754 399 731 373 690 323 c 0
 636 257 556 174 533 147 c 1
 561 101 594 58 659 58 c 0
 699 58 734 80 763 111 c 1
 776 100 l 1
588 559 m 0
 588 559 l 0
 599 604 576 644 531 644 c 0
 472 644 441 599 429 548 c 0
 418 510 425 450 433 416 c 1
 495 442 570 493 588 559 c 0
432 104 m 1
 392 177 366 260 344 343 c 1
 266 301 203 257 180 172 c 0
 161 104 206 40 273 40 c 0
 315 40 381 68 432 104 c 1
EndSplineSet
EndChar
StartChar: quotesingle
Encoding: 39 39 8
Width: 179
Flags: W
HStem: 444 21G<198 218>
Fore
306 641 m 1
 218 444 l 1
 198 444 l 1
 220 641 l 1
 220 662 249 684 273 684 c 0
 296 684 313 662 306 641 c 1
EndSplineSet
EndChar
StartChar: parenleft
Encoding: 40 40 9
Width: 333
Flags: W
Fore
261 -161 m 1
 244 -177 l 1
 138 -91 61 48 118 260 c 0
 166 433 293 579 476 676 c 1
 481 659 l 1
 323 567 247 424 206 269 c 0
 161 104 143 -41 261 -161 c 1
EndSplineSet
EndChar
StartChar: parenright
Encoding: 41 41 10
Width: 333
Flags: W
Fore
346 232 m 0
 300 60 160 -91 -9 -177 c 1
 -14 -161 l 1
 146 -68 220 74 261 229 c 0
 306 396 326 556 206 659 c 1
 223 676 l 1
 257 656 421 513 346 232 c 0
EndSplineSet
EndChar
StartChar: asterisk
Encoding: 42 42 11
Width: 499
Flags: W
Fore
585 559 m 1
 587 519 538 498 518 502 c 1
 495 504 439 482 390 467 c 1
 432 442 473 427 516 419 c 0
 536 416 545 382 519 359 c 0
 482 329 449 356 447 378 c 0
 444 398 409 430 379 458 c 1
 361 401 359 353 359 310 c 0
 361 292 336 260 307 266 c 0
 270 273 286 323 304 341 c 0
 323 358 344 412 364 458 c 1
 304 427 263 395 224 361 c 0
 206 346 169 346 166 375 c 0
 164 413 214 436 235 432 c 0
 257 429 312 450 358 470 c 1
 318 499 275 513 233 522 c 0
 215 525 207 559 233 582 c 0
 267 613 301 585 303 564 c 0
 306 544 341 511 370 482 c 1
 387 547 389 593 386 636 c 0
 382 654 412 687 441 682 c 0
 478 673 464 624 444 607 c 0
 425 590 407 536 387 482 c 1
 445 505 488 539 527 573 c 1
 547 585 581 587 585 559 c 1
EndSplineSet
EndChar
StartChar: plus
Encoding: 43 43 12
Width: 563
Flags: W
HStem: 238 65<111 315 395 598>
DStem: 315 238 378 238 255 17 318 17 390 521 453 521 332 303 395 303
Fore
598 238 m 1
 378 238 l 1
 318 17 l 1
 255 17 l 1
 315 238 l 1
 95 238 l 1
 112 303 l 1
 332 303 l 1
 390 521 l 1
 453 521 l 1
 395 303 l 1
 614 303 l 1
 598 238 l 1
EndSplineSet
EndChar
StartChar: comma
Encoding: 44 44 13
Width: 250
Flags: W
Fore
58 58 m 0
 69 100 101 126 144 126 c 0
 207 126 218 68 204 17 c 0
 187 -48 103 -118 35 -146 c 1
 28 -118 l 1
 74 -100 137 -41 146 -6 c 0
 147 0 151 5 144 5 c 0
 137 5 124 -5 104 -3 c 0
 72 -2 49 22 58 58 c 0
EndSplineSet
EndChar
StartChar: hyphen
Encoding: 45 45 14
Width: 333
Flags: W
HStem: 238 63<123 353>
Fore
353 238 m 1
 108 238 l 1
 124 301 l 1
 370 301 l 1
 353 238 l 1
EndSplineSet
EndChar
StartChar: period
Encoding: 46 46 15
Width: 250
Flags: W
Fore
69 60 m 0
 80 100 121 132 161 132 c 0
 201 132 224 100 214 60 c 0
 203 20 163 -12 123 -12 c 0
 83 -12 58 20 69 60 c 0
EndSplineSet
EndChar
StartChar: slash
Encoding: 47 47 16
Width: 278
Flags: W
DStem: 422 682 485 682 -41 -108 22 -108
Fore
485 682 m 1
 22 -108 l 1
 -41 -108 l 1
 422 682 l 1
 485 682 l 1
EndSplineSet
EndChar
StartChar: zero
Encoding: 48 48 17
Width: 537
Flags: W
HStem: -14 28<257 274> 650 26<430.207 450>
Fore
581 327 m 0
 581 327 l 0
 544 190 436 -14 258 -14 c 0
 117 -14 78 138 131 333 c 0
 169 476 275 676 447 676 c 0
 598 676 633 524 581 327 c 0
484 326 m 0
 531 504 541 650 445 650 c 0
 333 650 267 481 223 313 c 0
 183 164 164 14 272 14 c 0
 386 14 442 172 484 326 c 0
EndSplineSet
EndChar
StartChar: one
Encoding: 49 49 18
Width: 537
Flags: W
HStem: 0 21G<141 415>
DStem: 376 528 502 676 257 80 343 80
Fore
415 0 m 1
 141 0 l 1
 144 14 l 1
 226 18 244 37 257 80 c 1
 376 528 l 1
 398 607 362 593 284 565 c 1
 287 579 l 1
 502 676 l 1
 343 80 l 1
 330 37 339 18 418 14 c 1
 415 0 l 1
EndSplineSet
MinimumDistance: x2,9 
EndChar
StartChar: two
Encoding: 50 50 19
Width: 537
Flags: W
HStem: 0 77<170 442> 604 72<379 450>
DStem: 273 192 375 243 57 14 170 77
Fore
535 137 m 1
 442 0 l 1
 54 0 l 1
 57 14 l 1
 273 192 l 2
 358 261 456 358 484 459 c 0
 507 547 467 604 379 604 c 0
 301 604 244 539 203 473 c 1
 183 479 l 1
 232 593 329 676 450 676 c 0
 548 676 607 599 581 501 c 0
 556 407 492 339 375 243 c 2
 170 77 l 1
 384 77 l 2
 458 77 467 80 524 143 c 1
 535 137 l 1
EndSplineSet
EndChar
StartChar: three
Encoding: 51 51 20
Width: 537
Flags: W
HStem: -14 91<124 180> 616 60<396 445>
Fore
510 214 m 0
 470 63 316 -14 180 -14 c 0
 141 -14 65 -11 80 43 c 0
 84 65 104 77 124 77 c 0
 174 77 194 22 253 22 c 0
 336 22 406 88 427 167 c 0
 458 280 412 330 266 330 c 1
 267 344 l 1
 349 367 452 413 478 510 c 0
 495 574 461 616 396 616 c 0
 330 616 275 579 220 511 c 1
 206 516 l 1
 264 616 350 676 445 676 c 0
 550 676 585 621 565 542 c 0
 547 476 493 433 435 402 c 1
 510 367 536 312 510 214 c 0
EndSplineSet
EndChar
StartChar: four
Encoding: 52 52 21
Width: 537
Flags: W
HStem: 0 21G<315 392> 167 63<135 359 453 538>
DStem: 359 167 436 167 315 0 392 0 467 570 573 676 376 230 453 230 527 676 467 570 95 230 135 230
Fore
538 167 m 1
 436 167 l 1
 392 0 l 1
 315 0 l 1
 359 167 l 1
 78 167 l 1
 95 230 l 1
 527 676 l 1
 573 676 l 1
 453 230 l 1
 554 230 l 1
 538 167 l 1
376 230 m 1
 467 570 l 1
 135 230 l 1
 376 230 l 1
EndSplineSet
EndChar
StartChar: five
Encoding: 53 53 22
Width: 537
Flags: W
HStem: -14 98<123 177> 582 80<372 570>
DStem: 373 662 361 582 201 424 296 498
Fore
644 680 m 1
 570 582 l 1
 361 582 l 1
 296 498 l 1
 447 472 562 427 510 227 c 0
 470 78 324 -14 177 -14 c 0
 137 -14 60 -11 66 40 c 0
 69 68 94 84 123 84 c 0
 186 84 192 22 246 22 c 0
 332 22 406 100 432 195 c 0
 473 352 333 404 210 412 c 0
 201 413 198 418 201 424 c 1
 373 662 l 1
 570 662 l 2
 601 662 608 662 636 687 c 1
 644 680 l 1
EndSplineSet
EndChar
StartChar: six
Encoding: 54 54 23
Width: 537
Flags: W
HStem: -14 28<283 304> 382 45<370 418>
Fore
547 214 m 0
 547 214 l 0
 515 94 410 -14 283 -14 c 0
 157 -14 83 91 132 273 c 0
 189 490 381 645 591 674 c 0
 608 676 625 682 651 682 c 1
 648 664 l 1
 614 656 584 653 545 636 c 0
 445 594 333 518 278 382 c 1
 324 410 370 427 418 427 c 0
 535 427 582 346 547 214 c 0
458 226 m 0
 470 307 459 382 370 382 c 0
 336 382 296 370 264 350 c 0
 261 347 258 344 257 343 c 0
 237 316 226 283 217 247 c 0
 181 114 206 14 304 14 c 0
 379 14 441 108 458 226 c 0
EndSplineSet
EndChar
StartChar: seven
Encoding: 55 55 24
Width: 537
Flags: W
HStem: 587 75<280 550>
DStem: 550 587 645 647 190 -14 255 -14
Fore
645 647 m 1
 255 -14 l 1
 190 -14 l 1
 550 587 l 1
 344 587 l 2
 270 587 250 568 195 507 c 1
 181 515 l 1
 280 662 l 1
 648 662 l 1
 645 647 l 1
EndSplineSet
EndChar
StartChar: eight
Encoding: 56 56 25
Width: 537
Flags: W
HStem: -14 25<263 286> 650 26<436 455>
Fore
507 154 m 0
 507 154 l 0
 478 46 364 -14 263 -14 c 0
 164 -14 89 45 118 152 c 0
 140 237 223 287 295 332 c 1
 249 393 197 425 224 527 c 0
 243 596 332 676 455 676 c 0
 535 676 613 630 588 539 c 0
 565 452 488 407 410 372 c 1
 465 316 533 255 507 154 c 0
519 536 m 0
 519 536 l 0
 536 604 504 650 438 650 c 0
 379 650 321 611 304 550 c 0
 284 478 341 424 386 390 c 1
 447 419 501 472 519 536 c 0
422 126 m 0
 445 214 367 267 315 312 c 1
 312 309 307 307 303 303 c 1
 252 270 209 214 195 163 c 0
 174 78 197 11 284 11 c 0
 350 11 404 60 422 126 c 0
EndSplineSet
EndChar
StartChar: nine
Encoding: 57 57 26
Width: 537
Flags: W
HStem: 237 43<296 349> 292 21G<548 548> 650 26<425 449>
Fore
548 292 m 0
 548 292 l 0
 488 186 370 63 235 12 c 0
 172 -12 108 -23 77 -23 c 1
 78 -3 l 1
 143 8 243 35 333 124 c 0
 382 174 430 233 461 292 c 1
 399 257 346 237 296 237 c 0
 189 237 138 316 174 447 c 0
 195 530 287 676 449 676 c 0
 538 676 591 611 599 531 c 0
 605 459 593 373 548 292 c 0
496 413 m 0
 519 499 541 650 427 650 c 0
 339 650 292 545 273 476 c 0
 250 390 246 280 349 280 c 0
 381 280 444 303 472 330 c 1
 481 356 488 382 496 413 c 0
EndSplineSet
EndChar
StartChar: colon
Encoding: 58 58 27
Width: 278
Flags: W
HStem: -12 144<137 175> 324 144<227 266>
Fore
174 396 m 0
 174 396 l 0
 184 436 226 468 266 468 c 0
 306 468 329 436 318 396 c 0
 307 356 267 324 227 324 c 0
 187 324 163 356 174 396 c 0
83 60 m 0
 94 100 135 132 175 132 c 0
 215 132 238 100 227 60 c 0
 217 20 177 -12 137 -12 c 0
 97 -12 72 20 83 60 c 0
EndSplineSet
EndChar
StartChar: semicolon
Encoding: 59 59 28
Width: 278
Flags: W
HStem: 5 121<160 164> 324 144<215 253>
Fore
74 58 m 0
 74 58 l 0
 84 100 117 126 160 126 c 0
 229 126 235 77 221 23 c 0
 200 -60 131 -112 51 -146 c 1
 43 -118 l 1
 89 -100 151 -45 161 -6 c 0
 163 0 166 5 160 5 c 0
 152 5 140 -5 120 -3 c 0
 88 -2 65 22 74 58 c 0
161 396 m 0
 172 436 214 468 253 468 c 0
 293 468 316 436 306 396 c 0
 295 356 255 324 215 324 c 0
 175 324 151 356 161 396 c 0
EndSplineSet
EndChar
StartChar: less
Encoding: 60 60 29
Width: 563
Flags: W
DStem: 91 233 178 261 536 0 553 63 676 522 659 459 104 287 178 261
Fore
536 0 m 1
 91 233 l 1
 104 287 l 1
 676 522 l 1
 659 459 l 1
 178 261 l 1
 553 63 l 1
 536 0 l 1
EndSplineSet
EndChar
StartChar: equal
Encoding: 61 61 30
Width: 563
Flags: W
HStem: 132 65<82 568> 326 64<134 621>
Fore
621 326 m 1
 118 326 l 1
 135 390 l 1
 637 390 l 1
 621 326 l 1
568 132 m 1
 66 132 l 1
 83 197 l 1
 585 197 l 1
 568 132 l 1
EndSplineSet
EndChar
StartChar: greater
Encoding: 62 62 31
Width: 563
Flags: W
DStem: 151 459 167 522 525 261 613 287 525 261 599 233 45 63 28 0
Fore
599 233 m 1
 28 0 l 1
 45 63 l 1
 525 261 l 1
 151 459 l 1
 167 522 l 1
 613 287 l 1
 599 233 l 1
EndSplineSet
EndChar
StartChar: question
Encoding: 63 63 32
Width: 443
Flags: W
HStem: -14 115<214 244> 647 29<369 398>
Fore
533 518 m 0
 533 518 l 0
 516 453 464 402 415 355 c 2
 373 316 l 2
 326 270 293 223 269 164 c 1
 252 164 l 1
 293 319 406 386 441 516 c 0
 459 582 441 647 369 647 c 0
 330 647 253 621 257 573 c 1
 260 564 266 556 269 547 c 0
 276 533 280 527 275 510 c 0
 269 485 246 470 220 470 c 0
 184 470 186 508 194 536 c 0
 217 625 316 676 398 676 c 0
 511 676 554 596 533 518 c 0
286 43 m 0
 276 11 241 -14 214 -14 c 0
 184 -14 161 12 170 43 c 0
 178 74 215 101 244 101 c 0
 272 101 293 75 286 43 c 0
EndSplineSet
EndChar
StartChar: at
Encoding: 64 64 33
Width: 920
Flags: W
HStem: -155 40<441 475> 40 43<670 688> 427 46<633 651> 636 38<648 690>
Fore
957 330 m 0
 957 330 l 0
 914 172 771 40 670 40 c 0
 634 40 574 49 574 123 c 1
 528 72 455 41 412 41 c 0
 341 41 301 83 329 184 c 0
 369 330 524 473 637 473 c 0
 690 473 711 436 714 410 c 1
 739 459 l 1
 825 459 l 1
 659 144 l 2
 637 104 657 83 688 83 c 0
 763 83 885 214 915 329 c 0
 965 513 831 636 671 636 c 0
 458 636 263 421 217 249 c 0
 177 98 180 -115 464 -115 c 0
 561 -115 685 -78 756 -23 c 1
 720 -88 l 1
 720 -88 608 -155 452 -155 c 0
 249 -155 45 -38 124 257 c 0
 169 424 376 674 682 674 c 0
 808 674 1026 590 957 330 c 0
674 344 m 0
 691 409 668 427 639 427 c 0
 585 427 462 341 419 175 c 0
 401 111 413 84 456 84 c 0
 492 84 545 127 562 147 c 0
 582 170 656 273 674 344 c 0
EndSplineSet
EndChar
StartChar: A
Encoding: 65 65 34
Width: 721
Flags: W
HStem: 0 20<198 218> 217 40<286 519>
DStem: 473 531 548 676 516 257 641 117 528 676 473 531 197 194 286 257
Fore
705 0 m 1
 450 0 l 1
 455 20 l 1
 542 23 547 43 531 131 c 1
 519 217 l 1
 258 217 l 1
 233 178 170 98 161 61 c 0
 152 28 184 20 218 20 c 1
 214 0 l 1
 15 0 l 1
 20 20 l 1
 83 25 129 97 197 194 c 2
 528 676 l 1
 548 676 l 1
 641 117 l 1
 648 77 654 17 710 20 c 1
 705 0 l 1
516 257 m 1
 473 531 l 1
 286 257 l 1
 516 257 l 1
EndSplineSet
EndChar
StartChar: B
Encoding: 66 66 35
Width: 666
Flags: W
HStem: 0 20<25 48.8649> 0 37<291 337> 326 40<316 389> 642 20<197 215.343>
DStem: 273 582 376 593 138 80 316 366 273 582 306 326 138 80 243 91
Fore
645 183 m 0xb0
 645 183 l 0
 613 63 492 0 335 0 c 2
 20 0 l 1x70
 25 20 l 1
 106 20 131 51 138 80 c 2
 273 582 l 1
 280 610 273 642 192 642 c 1
 197 662 l 1
 464 662 l 2
 619 662 728 621 694 493 c 0
 671 409 604 366 522 347 c 1
 604 330 670 278 645 183 c 0xb0
590 490 m 0
 590 490 l 0
 611 565 574 607 508 619 c 1
 418 625 386 627 376 593 c 2
 316 366 l 1
 398 366 l 2
 499 366 568 409 590 490 c 0
530 184 m 0
 562 304 450 326 355 326 c 2
 306 326 l 1
 243 91 l 2
 233 55 237 37 309 37 c 0
 413 37 499 68 530 184 c 0
EndSplineSet
EndChar
StartChar: C
Encoding: 67 67 36
Width: 666
Flags: W
HStem: -14 45<371 395> 450 226<556 745> 634 42<538 572>
Fore
665 111 m 1xa0
 585 37 470 -14 373 -14 c 0
 180 -14 63 111 123 330 c 0
 175 528 355 676 556 676 c 0
 693 676 720 593 776 674 c 1
 797 674 l 1
 745 450 l 1
 722 450 l 1xc0
 722 559 670 634 554 634 c 0
 390 634 284 502 235 323 c 0
 198 183 230 31 393 31 c 0
 492 31 567 63 654 131 c 1
 665 111 l 1xa0
EndSplineSet
EndChar
StartChar: D
Encoding: 68 68 37
Width: 721
Flags: W
HStem: 0 20<25 46.5091> 624 38<197 457> 642 20<197 213.339>
DStem: 264 582 364 573 129 80 235 91
Fore
776 329 m 0xc0
 776 329 l 0
 722 126 553 0 286 0 c 2
 20 0 l 1
 25 20 l 1
 98 20 121 51 129 80 c 2
 264 582 l 1
 270 610 266 642 192 642 c 1xa0
 197 662 l 1
 455 662 l 2
 710 662 836 553 776 329 c 0xc0
667 327 m 0
 719 524 619 624 435 624 c 0xc0
 387 624 378 622 364 573 c 1
 235 91 l 1
 224 54 249 43 269 41 c 0
 472 32 617 143 667 327 c 0
EndSplineSet
EndChar
StartChar: E
Encoding: 69 69 38
Width: 609
Flags: W
HStem: 0 20<17 38.297> 0 41<235 551> 326 41<301 445> 519 143<189 682> 621 41<189 589> 642 20<189 205.121>
DStem: 257 582 359 582 121 80 301 367 257 582 290 326 121 80 224 80
Fore
641 169 m 1x68
 551 0 l 1
 12 0 l 1x68
 17 20 l 1
 89 20 114 51 121 80 c 2
 257 582 l 1
 263 610 257 642 184 642 c 1xa4
 189 662 l 1x30
 719 662 l 1x24
 682 519 l 1
 660 519 l 1x30
 664 573 642 621 573 621 c 2
 412 621 l 2
 387 621 366 607 359 582 c 1
 301 367 l 1
 441 367 l 2
 508 367 570 384 591 462 c 1
 611 462 l 1
 548 229 l 1
 528 229 l 1
 550 307 498 326 430 326 c 2
 290 326 l 1
 224 80 l 2
 220 63 218 41 238 41 c 2
 370 41 l 2
 450 41 528 43 613 169 c 1
 641 169 l 1x68
EndSplineSet
EndChar
StartChar: F
Encoding: 70 70 39
Width: 556
Flags: W
HStem: 0 20<17 38.297 283 296> 326 41<301 445> 519 143<189 684> 621 41<189 589> 642 20<189 205.121>
DStem: 257 582 359 582 121 80 301 367 257 582 290 326 121 80 224 80
Fore
684 519 m 1xe0
 659 519 l 1xe0
 676 628 613 621 542 621 c 2
 410 621 l 2xd0
 376 621 366 605 359 582 c 2
 301 367 l 1
 432 367 l 2
 499 367 561 384 582 462 c 1
 604 462 l 1
 541 229 l 1
 519 229 l 1
 541 307 488 326 421 326 c 2
 290 326 l 1
 224 80 l 2
 217 51 221 20 296 20 c 1
 292 0 l 1
 12 0 l 1
 17 20 l 1
 89 20 114 51 121 80 c 2
 257 582 l 1
 263 610 257 642 184 642 c 1xc8
 189 662 l 1xe0
 720 662 l 1xc8
 684 519 l 1xe0
EndSplineSet
MinimumDistance: x17,14 
EndChar
StartChar: G
Encoding: 71 71 40
Width: 721
Flags: W
HStem: -14 42<378 404> 336 20<544 562.15 544 794> 636 40<531 564>
DStem: 602 247 699 247 562 98 648 57
Fore
794 336 m 1
 730 336 714 304 699 247 c 2
 648 57 l 1
 582 25 461 -14 379 -14 c 0
 209 -14 52 94 115 329 c 0
 169 527 352 676 551 676 c 0
 673 676 731 602 776 676 c 1
 797 676 l 1
 748 464 l 1
 727 464 l 1
 716 570 668 636 550 636 c 0
 384 636 276 496 229 321 c 0
 187 167 235 28 402 28 c 0
 439 28 482 34 521 49 c 0
 553 63 554 69 562 98 c 2
 602 247 l 2
 617 304 622 336 539 336 c 1
 544 356 l 1
 799 356 l 1
 794 336 l 1
EndSplineSet
MinimumDistance: x16,0 
EndChar
StartChar: H
Encoding: 72 72 41
Width: 721
Flags: W
HStem: 0 20<25 46.5091 291 303 429 450.571 691 707> 318 41<307 598> 642 20<194 212.958 194 470 601 617.44 601 874>
DStem: 264 582 367 582 129 80 307 359 264 582 295 318 129 80 232 80 598 318 771 582 535 80 636 80 670 582 771 582 610 359 636 80
Fore
702 0 m 1
 424 0 l 1
 429 20 l 1
 502 20 527 51 535 80 c 2
 598 318 l 1
 295 318 l 1
 232 80 l 2
 224 51 229 20 303 20 c 1
 298 0 l 1
 20 0 l 1
 25 20 l 1
 98 20 121 51 129 80 c 2
 264 582 l 1
 270 610 266 642 192 642 c 1
 194 662 l 1
 475 662 l 1
 470 642 l 1
 396 642 373 610 367 582 c 1
 307 359 l 1
 610 359 l 1
 670 582 l 1
 676 610 670 642 596 642 c 1
 601 662 l 1
 879 662 l 1
 874 642 l 1
 802 642 777 610 771 582 c 1
 636 80 l 2
 628 51 634 20 707 20 c 1
 702 0 l 1
EndSplineSet
MinimumDistance: x21,24 x13,16 x10,27 x13,24 x2,27 x10,7 
EndChar
StartChar: I
Encoding: 73 73 42
Width: 333
Flags: W
HStem: 0 20<23 47.4157 305 321> 642 20<195 213.921 195 488>
DStem: 273 582 375 582 138 80 240 80
Fore
316 0 m 1
 18 0 l 1
 23 20 l 1
 106 20 131 51 138 80 c 2
 273 582 l 1
 280 610 273 642 190 642 c 1
 195 662 l 1
 493 662 l 1
 488 642 l 1
 406 642 381 610 375 582 c 1
 240 80 l 2
 232 51 238 20 321 20 c 1
 316 0 l 1
EndSplineSet
MinimumDistance: x2,11 x5,8 
EndChar
StartChar: J
Encoding: 74 74 43
Width: 388
Flags: W
HStem: -14 122<88 109> 642 20<255 273.883 255 548>
DStem: 333 582 435 582 207 114 332 198
Fore
548 642 m 1
 465 642 441 610 435 582 c 1
 332 198 l 2
 293 57 201 -14 109 -14 c 0
 80 -14 22 -3 26 45 c 1
 26 60 l 1
 32 83 60 108 88 108 c 0
 117 108 131 86 124 77 c 0
 114 57 120 25 141 25 c 0
 170 25 197 72 207 114 c 2
 333 582 l 1
 339 610 333 642 250 642 c 1
 255 662 l 1
 553 662 l 1
 548 642 l 1
EndSplineSet
MinimumDistance: x11,0 
EndChar
StartChar: K
Encoding: 75 75 44
Width: 721
Flags: W
HStem: 0 20<25 47.0884 290 307 409 436.305 706 713> 642 20<197 213.682 197 476 576 833>
DStem: 267 582 369 582 132 80 306 347 267 582 292 296 132 80 233 80
Fore
708 0 m 1
 404 0 l 1
 409 20 l 1
 482 20 493 37 484 65 c 0
 470 112 422 183 395 221 c 2
 323 316 l 1
 292 296 l 1
 233 80 l 2
 226 51 232 20 307 20 c 1
 303 0 l 1
 20 0 l 1
 25 20 l 1
 100 20 124 51 132 80 c 2
 267 582 l 1
 273 610 267 642 192 642 c 1
 197 662 l 1
 481 662 l 1
 476 642 l 1
 399 642 375 610 369 582 c 1
 306 347 l 1
 358 387 617 562 630 608 c 0
 641 645 596 641 571 642 c 1
 576 662 l 1
 837 662 l 1
 833 642 l 1
 759 642 710 604 648 556 c 2
 421 376 l 1
 533 210 l 1
 581 137 l 2
 617 78 642 20 713 20 c 1
 708 0 l 1
EndSplineSet
MinimumDistance: x14,17 x11,8 
EndChar
StartChar: L
Encoding: 76 76 45
Width: 609
Flags: W
HStem: 0 20<17 38.297> 0 41<283 550> 642 20<189 205.121 189 462>
DStem: 257 582 359 582 121 80 224 80
Fore
644 174 m 1x60
 550 0 l 1
 12 0 l 1x60
 17 20 l 1xa0
 89 20 114 51 121 80 c 2
 257 582 l 1
 263 610 257 642 184 642 c 1
 189 662 l 1
 467 662 l 1
 462 642 l 1
 389 642 366 610 359 582 c 1
 224 80 l 2
 217 52 250 41 313 41 c 0
 439 41 527 37 619 174 c 1
 644 174 l 1x60
EndSplineSet
MinimumDistance: x6,9 
EndChar
StartChar: M
Encoding: 77 77 46
Width: 887
Flags: W
HStem: 0 20<25 48.8649 243 261 598 619.267 867 874> 642 20<198 216.68 846 1041>
DStem: 273 582 306 545 138 80 181 80 306 545 396 662 410 0 492 157 833 568 938 582 702 80 803 80
Fore
869 0 m 1
 593 0 l 1
 598 20 l 1
 670 20 694 51 702 80 c 2
 833 568 l 1
 424 0 l 1
 410 0 l 1
 306 545 l 1
 181 80 l 2
 174 51 180 20 261 20 c 1
 257 0 l 1
 20 0 l 1
 25 20 l 1
 106 20 131 51 138 80 c 2
 273 582 l 1
 280 610 273 642 194 642 c 1
 198 662 l 1
 396 662 l 1
 492 157 l 1
 846 662 l 1
 1046 662 l 1
 1041 642 l 1
 968 642 945 610 938 582 c 1
 803 80 l 2
 796 51 802 20 874 20 c 1
 869 0 l 1
EndSplineSet
MinimumDistance: x2,24 x12,9 
EndChar
StartChar: N
Encoding: 78 78 47
Width: 721
Flags: W
HStem: 0 20<17 40.8661 235 255> 642 20<189 207.225 647 665.83 647 880>
DStem: 266 587 298 536 131 80 175 80 298 536 359 662 593 -14 616 181 723 582 768 582 616 181 608 -14
Fore
880 642 m 1
 799 642 774 610 768 582 c 1
 608 -14 l 1
 593 -14 l 1
 298 536 l 1
 175 80 l 2
 167 51 172 20 255 20 c 1
 250 0 l 1
 12 0 l 1
 17 20 l 1
 98 20 123 51 131 80 c 2
 266 587 l 1
 261 598 l 1
 240 633 233 642 184 642 c 1
 189 662 l 1
 359 662 l 1
 616 181 l 1
 723 582 l 1
 730 610 725 642 642 642 c 1
 647 662 l 1
 885 662 l 1
 880 642 l 1
EndSplineSet
MinimumDistance: x18,0 x9,6 
EndChar
StartChar: O
Encoding: 79 79 48
Width: 721
Flags: W
HStem: 639 37<531 543>
Fore
776 330 m 0
 776 330 l 0
 723 138 558 -14 358 -14 c 0
 181 -14 66 120 123 330 c 0
 175 530 347 679 542 676 c 1
 716 684 833 544 776 330 c 0
664 330 m 1
 705 487 688 642 531 639 c 1
 381 630 287 522 237 330 c 0
 181 124 246 14 367 23 c 0
 548 37 639 224 664 330 c 1
EndSplineSet
EndChar
StartChar: P
Encoding: 80 80 49
Width: 556
Flags: W
HStem: 0 20<15 36.8444 278 293> 289 38<338 367> 624 38<194 428> 642 20<194 208.778>
DStem: 257 582 356 579 121 80 290 330 257 582 280 293 121 80 223 80
Fore
673 487 m 0xd0
 673 487 l 0
 633 339 493 289 364 289 c 0
 336 289 309 290 280 293 c 1
 223 80 l 2
 215 51 221 20 293 20 c 1
 289 0 l 1
 11 0 l 1
 15 20 l 1
 89 20 114 51 121 80 c 2
 257 582 l 1
 263 610 257 642 189 642 c 1xd0
 194 662 l 1xe0
 444 662 l 2
 599 662 705 605 673 487 c 0xd0
562 479 m 0
 591 593 508 624 412 624 c 0xe0
 370 624 367 619 356 579 c 2
 290 330 l 1
 306 330 321 327 338 327 c 0
 445 327 531 364 562 479 c 0
EndSplineSet
MinimumDistance: x8,5 
EndChar
StartChar: Q
Encoding: 81 81 50
Width: 721
Flags: W
HStem: -177 200<367 653> 639 37<522 544>
Fore
653 -177 m 1
 653 -177 l 0
 479 -177 367 -147 306 -65 c 0
 292 -48 280 -20 266 -8 c 1
 258 3 244 8 237 9 c 0
 115 45 86 194 123 330 c 0
 175 525 338 676 542 676 c 0
 743 676 826 524 776 330 c 0
 723 138 554 -3 422 -8 c 1
 470 -100 539 -157 657 -160 c 1
 653 -177 l 1
664 330 m 0
 716 528 660 639 531 639 c 0
 395 637 289 530 237 330 c 0
 183 134 237 23 367 23 c 0
 505 23 614 147 664 330 c 0
EndSplineSet
EndChar
StartChar: R
Encoding: 82 82 51
Width: 666
Flags: W
HStem: 0 20<17 37.9599 279 292> 624 38<189 461> 642 20<189 204.581>
DStem: 253 582 353 576 118 80 292 343 253 582 281 306 118 80 221 80 338 307 447 319 493 0 579 75
Fore
653 0 m 1xc0
 493 0 l 1
 338 307 l 1
 281 306 l 1
 221 80 l 2
 214 51 218 20 292 20 c 1
 287 0 l 1
 12 0 l 1
 17 20 l 1
 88 20 111 51 118 80 c 2
 253 582 l 1
 260 610 255 642 184 642 c 1xa0
 189 662 l 1
 453 662 l 2
 619 662 703 604 673 487 c 0
 644 381 544 332 447 319 c 1
 579 75 l 1
 598 43 614 23 657 20 c 1
 653 0 l 1xc0
564 485 m 0
 590 584 530 624 441 624 c 0xc0
 375 624 367 624 353 576 c 1
 292 343 l 1
 438 347 535 378 564 485 c 0
EndSplineSet
MinimumDistance: x8,5 
EndChar
StartChar: S
Encoding: 83 83 52
Width: 556
Flags: W
HStem: -14 39<260 294> 634 42<420 438>
Fore
535 169 m 0
 511 80 413 -14 276 -14 c 0
 174 -14 120 60 91 -14 c 1
 69 -14 l 1
 97 201 l 1
 118 201 l 1
 126 108 172 25 278 25 c 0
 359 25 432 94 430 172 c 0
 427 312 155 318 207 508 c 0
 233 607 332 676 429 676 c 0
 535 676 564 602 607 676 c 1
 628 676 l 1
 593 462 l 1
 568 462 l 1
 570 556 525 634 433 634 c 0
 373 634 318 602 301 539 c 0
 286 481 338 439 373 413 c 0
 488 332 567 289 535 169 c 0
EndSplineSet
EndChar
StartChar: T
Encoding: 84 84 53
Width: 609
Flags: W
HStem: 0 20<170 191.783 438 449> 619 43<201 419 201 632>
DStem: 419 619 522 619 275 80 378 80
Fore
725 492 m 1
 702 492 l 1
 714 622 664 619 593 619 c 2
 522 619 l 1
 378 80 l 2
 370 51 375 20 449 20 c 1
 444 0 l 1
 166 0 l 1
 170 20 l 1
 244 20 267 51 275 80 c 2
 419 619 l 1
 349 619 272 624 232 582 c 1
 203 556 189 522 175 492 c 1
 151 492 l 1
 201 662 l 1
 763 662 l 1
 725 492 l 1
EndSplineSet
MinimumDistance: x8,5 
EndChar
StartChar: U
Encoding: 85 85 54
Width: 721
Flags: W
HStem: -14 45<356 387> 642 20<194 209.881 194 465 650 667.527 650 876>
DStem: 261 582 362 582 172 253 272 246 723 582 766 582 639 267 682 267
Fore
876 642 m 1
 797 642 773 610 766 582 c 1
 682 267 l 2
 651 154 619 66 490 12 c 0
 455 -3 399 -14 356 -14 c 0
 175 -14 123 71 172 253 c 2
 261 582 l 1
 267 610 261 642 189 642 c 1
 194 662 l 1
 470 662 l 1
 465 642 l 1
 393 642 369 610 362 582 c 1
 272 246 l 2
 230 91 261 31 387 31 c 0
 573 31 613 172 639 267 c 1
 723 582 l 1
 730 610 723 642 645 642 c 1
 650 662 l 1
 880 662 l 1
 876 642 l 1
EndSplineSet
MinimumDistance: x16,0 x7,10 
EndChar
StartChar: V
Encoding: 86 86 55
Width: 721
Flags: W
HStem: 642 20<192 200 197 458 673 688.161 673 872>
DStem: 272 527 387 487 370 -14 445 161 682 516 770 570 445 161 382 -14
Fore
872 642 m 1
 825 642 796 610 770 570 c 0
 650 393 476 131 382 -14 c 1
 370 -14 l 1
 272 527 l 2
 261 587 250 642 192 642 c 1
 197 662 l 1
 462 662 l 1
 458 642 l 1
 395 642 379 630 373 605 c 0
 367 584 382 507 387 487 c 1
 445 161 l 1
 682 516 l 2
 697 538 722 576 728 599 c 0
 739 637 696 642 668 642 c 1
 673 662 l 1
 877 662 l 1
 872 642 l 1
EndSplineSet
EndChar
StartChar: W
Encoding: 87 87 56
Width: 943
Flags: W
HStem: 642 20<186 425 493 508.471 493 756>
DStem: 576 470 584 412 395 189 316 -14 584 412 668 570 631 -14 714 186
Fore
1107 642 m 1
 1083 641 1058 633 1037 614 c 1
 1025 601 1014 585 1005 570 c 2
 644 -14 l 1
 631 -14 l 1
 584 412 l 1
 316 -14 l 1
 303 -14 l 1
 264 419 l 1
 260 468 252 561 237 604 c 0
 229 630 209 639 181 642 c 1
 186 662 l 1
 430 662 l 1
 425 642 l 1
 412 642 l 2
 378 637 359 637 350 602 c 0
 347 593 352 562 352 553 c 1
 395 189 l 1
 576 470 l 1
 571 513 568 556 559 596 c 0
 551 633 528 642 488 642 c 1
 493 662 l 1
 760 662 l 1
 756 642 l 1
 728 642 679 642 671 611 c 0
 667 596 668 576 668 570 c 1
 714 186 l 1
 923 513 l 2
 954 562 971 604 966 619 c 0
 958 641 931 641 909 642 c 1
 914 662 l 1
 1112 662 l 1
 1107 642 l 1
EndSplineSet
EndChar
StartChar: X
Encoding: 88 88 57
Width: 721
Flags: W
HStem: 0 20<17 30.2249 235 249 413 441.927 693 710> 642 20<201 498 636 657.237 636 869>
DStem: 401 326 416 287 203 143 269 149 416 287 501 367 470 158 614 103 625 533 685 539 485 404 501 367
Fore
705 0 m 1
 409 0 l 1
 413 20 l 1
 484 20 504 34 499 69 c 0
 498 92 479 137 470 158 c 2
 416 287 l 1
 269 149 l 2
 244 127 214 100 194 75 c 0
 172 48 189 20 249 20 c 1
 244 0 l 1
 12 0 l 1
 17 20 l 1
 74 20 132 77 203 143 c 2
 401 326 l 1
 339 476 l 1
 289 598 267 639 197 642 c 1
 201 662 l 1
 502 662 l 1
 498 642 l 1
 435 642 421 634 415 611 c 0
 406 581 452 478 464 453 c 1
 485 404 l 1
 625 533 l 2
 644 550 687 584 693 610 c 0
 702 642 653 642 631 642 c 1
 636 662 l 1
 874 662 l 1
 869 642 l 1
 797 642 723 576 685 539 c 2
 501 367 l 1
 614 103 l 1
 644 40 664 20 710 20 c 1
 705 0 l 1
EndSplineSet
EndChar
StartChar: Y
Encoding: 89 89 58
Width: 721
Flags: W
HStem: 0 20<218 243.241 497 522> 642 20<195 203 200 475 660 685.781>
DStem: 318 476 406 559 393 293 490 347 393 293 498 303 336 80 438 80 684 562 697 519 490 347 498 303
Fore
874 642 m 1
 802 633 737 564 697 519 c 2
 498 303 l 1
 438 80 l 2
 430 51 436 20 522 20 c 1
 518 0 l 1
 214 0 l 1
 218 20 l 1
 304 20 329 51 336 80 c 2
 393 293 l 1
 318 476 l 1
 276 574 266 641 195 642 c 1
 200 662 l 1
 479 662 l 1
 475 642 l 1
 421 642 401 636 395 614 c 0
 389 593 396 576 406 559 c 1
 490 347 l 1
 684 562 l 2
 699 581 720 602 717 624 c 0
 714 636 708 642 656 642 c 1
 660 662 l 1
 879 662 l 1
 874 642 l 1
EndSplineSet
MinimumDistance: x7,4 
EndChar
StartChar: Z
Encoding: 90 90 59
Width: 609
Flags: W
HStem: 0 38<155 573> 624 38<227 613>
DStem: 613 624 753 650 11 12 155 38
Fore
644 177 m 1
 573 0 l 1
 8 0 l 1
 11 12 l 1
 613 624 l 1
 404 624 l 2
 301 624 238 605 187 490 c 1
 161 490 l 1
 227 662 l 1
 756 662 l 1
 753 650 l 1
 155 38 l 1
 401 38 l 2
 510 38 562 66 621 177 c 1
 644 177 l 1
EndSplineSet
EndChar
StartChar: bracketleft
Encoding: 91 91 60
Width: 333
Flags: W
HStem: -157 26<173 258> 636 26<264 470>
DStem: 264 662 319 581 46 -157 146 -68
Fore
258 -157 m 1
 46 -157 l 1
 264 662 l 1
 476 662 l 1
 470 636 l 1
 392 636 l 2
 346 636 332 625 319 581 c 2
 146 -68 l 2
 132 -120 141 -131 189 -131 c 2
 264 -131 l 1
 258 -157 l 1
EndSplineSet
EndChar
StartChar: backslash
Encoding: 92 92 61
Width: 278
Flags: W
HStem: 0 21G<289 361>
DStem: 100 682 172 682 289 0 361 0
Fore
361 0 m 1
 289 0 l 1
 100 682 l 1
 172 682 l 1
 361 0 l 1
EndSplineSet
EndChar
StartChar: bracketright
Encoding: 93 93 62
Width: 333
Flags: W
HStem: -157 26<-3 203> 636 26<209 297>
DStem: 318 556 421 662 152 -63 203 -157
Fore
203 -157 m 1
 -8 -157 l 1
 -2 -131 l 1
 68 -131 l 2
 127 -129 137 -121 152 -63 c 2
 318 556 l 1
 332 610 341 636 293 636 c 2
 204 636 l 1
 210 662 l 1
 421 662 l 1
 203 -157 l 1
EndSplineSet
EndChar
StartChar: asciicircum
Encoding: 94 94 63
Width: 468
Flags: W
DStem: 379 662 393 593 83 257 155 257 393 593 444 662 452 257 525 257
Fore
525 257 m 1
 452 257 l 1
 393 593 l 1
 155 257 l 1
 83 257 l 1
 379 662 l 1
 444 662 l 1
 525 257 l 1
EndSplineSet
EndChar
StartChar: underscore
Encoding: 95 95 64
Width: 499
Flags: W
HStem: -174 59<-32 453>
Fore
453 -174 m 1
 -46 -174 l 1
 -31 -115 l 1
 468 -115 l 1
 453 -174 l 1
EndSplineSet
EndChar
StartChar: grave
Encoding: 96 96 65
Width: 333
Flags: W
Fore
378 507 m 1
 338 507 l 1
 220 598 l 2
 206 607 184 624 189 641 c 0
 195 664 209 677 229 677 c 0
 246 677 270 664 278 645 c 1
 378 507 l 1
EndSplineSet
EndChar
StartChar: a
Encoding: 97 97 66
Width: 443
Flags: W
HStem: -11 60<140 209> 435 23<325 347>
DStem: 353 264 444 287 307 94 387 77
Fore
455 43 m 1
 455 43 l 0
 433 25 384 -11 356 -11 c 0
 304 -11 296 28 306 66 c 1
 249 25 183 -11 140 -11 c 0
 80 -11 46 37 63 95 c 0
 95 215 267 257 361 290 c 1
 389 396 390 435 327 435 c 0
 307 435 269 425 253 407 c 1
 246 395 244 375 238 349 c 0
 232 326 204 304 181 304 c 0
 135 304 137 344 169 382 c 0
 218 442 286 458 347 458 c 0
 458 458 478 410 444 287 c 2
 387 77 l 1
 378 40 402 35 461 69 c 1
 455 43 l 1
307 94 m 1
 353 264 l 1
 284 238 184 221 160 131 c 0
 147 88 161 49 209 49 c 0
 229 49 292 71 307 94 c 1
EndSplineSet
EndChar
StartChar: b
Encoding: 98 98 67
Width: 499
Flags: W
HStem: -11 34<240 263> 396 62<364 424>
DStem: 224 559 343 682 92 68 261 378 224 559 243 309 92 68 183 84
Fore
538 243 m 0
 538 243 l 0
 504 112 376 -11 240 -11 c 0
 183 -11 129 5 95 37 c 1
 91 43 88 54 92 68 c 1
 224 559 l 2
 243 628 229 619 175 619 c 1
 180 637 l 1
 218 647 246 651 273 660 c 2
 343 682 l 1
 261 378 l 1
 303 430 366 458 424 458 c 0
 539 458 565 344 538 243 c 0
439 200 m 0
 461 280 465 396 364 396 c 0
 290 396 255 353 243 309 c 2
 183 84 l 1
 170 51 181 49 206 35 c 0
 221 28 246 23 263 23 c 0
 362 23 416 117 439 200 c 0
EndSplineSet
EndChar
StartChar: c
Encoding: 99 99 68
Width: 443
Flags: W
HStem: -11 71<209 272> 429 29<346 372>
Fore
452 149 m 1
 387 63 312 -11 209 -11 c 0
 101 -11 49 91 81 214 c 0
 117 344 223 458 372 458 c 0
 429 458 507 427 495 359 c 0
 488 336 461 316 438 316 c 0
 415 316 398 338 404 359 c 0
 415 399 399 429 346 429 c 0
 260 429 194 338 170 255 c 0
 146 163 169 60 272 60 c 0
 338 60 392 106 439 157 c 1
 452 149 l 1
EndSplineSet
EndChar
StartChar: d
Encoding: 100 100 69
Width: 499
Flags: W
HStem: -11 49<209 261> 427 31<342 361>
DStem: 419 300 607 682 370 117 449 91 490 559 607 682 452 418 449 91
Fore
502 45 m 1
 502 45 l 0
 450 31 395 12 336 -14 c 1
 355 60 l 1
 318 20 260 -11 209 -11 c 0
 84 -11 52 98 83 210 c 0
 114 327 230 458 359 458 c 0
 410 458 442 433 452 418 c 1
 490 559 l 1
 507 627 499 619 439 619 c 1
 444 637 l 1
 484 647 511 651 538 660 c 2
 607 682 l 1
 449 91 l 1
 438 54 475 60 505 60 c 1
 502 45 l 1
370 117 m 2
 419 300 l 2
 439 372 421 427 349 427 c 0
 266 427 201 333 177 241 c 0
 141 111 181 38 261 38 c 0
 318 38 361 83 370 117 c 2
EndSplineSet
EndChar
StartChar: e
Encoding: 101 101 70
Width: 443
Flags: W
HStem: -11 68<209 269> 276 31<177 476> 422 36<318 349>
Fore
464 158 m 1
 464 158 l 0
 409 68 309 -11 209 -11 c 0
 94 -11 49 95 80 214 c 0
 118 356 226 458 349 458 c 0
 456 458 501 379 476 276 c 1
 164 276 l 1
 141 181 155 57 269 57 c 0
 335 57 402 109 449 164 c 1
 464 158 l 1
382 307 m 1
 395 366 384 422 318 422 c 0
 247 422 203 370 177 307 c 1
 382 307 l 1
EndSplineSet
EndChar
StartChar: f
Encoding: 102 102 71
Width: 333
Flags: W
HStem: 0 21G<20 280> 416 31<140 215 307 421> 579 103<456 499>
DStem: 215 416 300 416 124 80 209 80
Fore
550 624 m 1
 544 602 522 579 499 579 c 0
 445 579 472 630 439 648 c 0
 429 654 413 656 399 650 c 1
 355 639 344 587 335 553 c 2
 307 447 l 1
 429 447 l 1
 421 416 l 1
 300 416 l 1
 209 80 l 1
 197 37 207 18 283 14 c 1
 280 0 l 1
 20 0 l 1
 23 14 l 1
 92 18 112 37 124 80 c 1
 215 416 l 1
 134 416 l 1
 141 447 l 1
 223 447 l 1
 232 482 241 513 257 544 c 0
 295 622 373 682 456 682 c 0
 496 682 541 674 550 624 c 1
EndSplineSet
MinimumDistance: x13,10 
EndChar
StartChar: g
Encoding: 103 103 72
Width: 499
Flags: W
HStem: -217 56<141 197> 147 27<284 303> 386 72<367 573> 430 28<346 367>
Fore
573 386 m 1xe0
 490 386 l 0
 496 356 492 323 485 300 c 0
 461 204 372 147 284 147 c 0
 267 147 250 151 232 154 c 1
 210 149 157 108 157 84 c 1
 164 65 220 65 240 63 c 0
 372 57 479 68 447 -49 c 0
 418 -163 235 -217 141 -217 c 0
 26 -217 -14 -154 -3 -114 c 0
 8 -74 61 -46 126 2 c 1
 108 11 80 25 88 54 c 0
 98 94 158 134 206 163 c 1
 155 187 131 230 149 296 c 0
 175 395 272 458 367 458 c 0
 453 458 449 407 584 424 c 1
 573 386 l 1xe0
401 272 m 0
 401 272 l 0
 416 327 413 430 346 430 c 0xd0
 286 430 255 384 241 335 c 0
 224 272 220 174 301 174 c 0
 358 174 389 223 401 272 c 0
415 -68 m 0
 429 -17 359 -15 295 -14 c 0
 250 -14 190 -12 146 -3 c 1
 121 -25 83 -58 74 -91 c 0
 65 -126 94 -161 197 -161 c 0
 315 -161 399 -124 415 -68 c 0
EndSplineSet
EndChar
StartChar: h
Encoding: 104 104 73
Width: 499
Flags: W
HStem: 0 21G<9 220 280 490> 404 54<373 424>
DStem: 223 559 339 682 94 80 258 378 223 559 249 344 94 80 178 80 419 287 504 289 364 80 449 80
Fore
490 0 m 1
 280 0 l 1
 283 14 l 1
 332 18 352 37 364 80 c 1
 419 287 l 2
 435 346 445 404 373 404 c 0
 318 404 287 376 249 344 c 1
 178 80 l 1
 166 37 177 18 223 14 c 1
 220 0 l 1
 9 0 l 1
 12 14 l 1
 61 18 81 37 94 80 c 1
 223 559 l 1
 240 624 229 621 175 619 c 1
 180 637 l 1
 217 647 244 651 270 660 c 2
 339 682 l 1
 258 378 l 1
 304 422 364 458 424 458 c 0
 525 458 535 399 504 289 c 1
 449 80 l 1
 436 37 447 18 493 14 c 1
 490 0 l 1
EndSplineSet
MinimumDistance: x2,22 x11,8 
EndChar
StartChar: i
Encoding: 105 105 74
Width: 278
Flags: W
HStem: 0 21G<23 260> 579 103<289 316>
DStem: 184 323 306 458 120 80 204 80
Fore
353 630 m 0
 353 630 l 0
 346 602 316 579 289 579 c 0
 260 579 244 602 252 630 c 0
 260 659 287 682 316 682 c 0
 344 682 361 659 353 630 c 0
260 0 m 1
 23 0 l 1
 26 14 l 1
 88 18 108 37 120 80 c 1
 184 323 l 1
 206 401 195 407 127 390 c 1
 131 404 l 1
 306 458 l 1
 204 80 l 1
 192 37 203 18 263 14 c 1
 260 0 l 1
EndSplineSet
MinimumDistance: x7,14 
EndChar
StartChar: j
Encoding: 106 106 75
Width: 278
Flags: W
HStem: 579 103<316 344>
DStem: 214 343 329 458 97 -94 209 12
Fore
381 630 m 0
 381 630 l 0
 373 602 344 579 316 579 c 0
 289 579 272 602 280 630 c 0
 287 659 316 682 344 682 c 0
 372 682 389 659 381 630 c 0
209 12 m 1
 169 -140 89 -217 -23 -217 c 0
 -51 -217 -80 -207 -94 -190 c 1
 -108 -167 -92 -134 -69 -124 c 0
 -46 -114 -28 -118 -18 -132 c 1
 -12 -147 -5 -167 20 -181 c 0
 57 -200 86 -134 97 -94 c 2
 214 343 l 1
 227 396 215 399 152 390 c 1
 155 404 l 1
 329 458 l 1
 209 12 l 1
EndSplineSet
EndChar
StartChar: k
Encoding: 107 107 76
Width: 499
Flags: W
HStem: 0 14<286 300.528> 433 14<390 410.933 390 591>
DStem: 227 247 306 283 324 51 401 98 232 579 344 682 98 80 232 263 232 579 227 247 98 80 183 80
Fore
499 0 m 1
 283 0 l 1
 286 14 l 1
 333 14 330 40 324 51 c 1
 227 247 l 1
 183 80 l 1
 170 37 181 18 240 14 c 1
 237 0 l 1
 2 0 l 1
 5 14 l 1
 66 18 86 37 98 80 c 1
 232 579 l 2
 244 625 233 622 177 619 c 1
 181 637 l 1
 221 647 249 651 275 660 c 2
 344 682 l 1
 232 263 l 1
 387 373 l 2
 402 384 418 396 432 410 c 1
 438 427 429 433 387 433 c 1
 390 447 l 1
 594 447 l 1
 591 433 l 1
 488 433 418 362 306 283 c 1
 401 98 l 2
 421 58 452 17 502 14 c 1
 499 0 l 1
EndSplineSet
MinimumDistance: x2,25 x9,6 
EndChar
StartChar: l
Encoding: 108 108 77
Width: 278
Flags: W
HStem: 0 21G<20 260>
DStem: 247 559 366 682 118 80 204 80
Fore
260 0 m 1
 20 0 l 1
 23 14 l 1
 88 18 106 37 118 80 c 1
 247 559 l 1
 266 633 257 624 187 624 c 1
 190 637 l 1
 241 647 316 665 366 682 c 1
 204 80 l 1
 192 37 201 18 263 14 c 1
 260 0 l 1
EndSplineSet
MinimumDistance: x2,9 
EndChar
StartChar: m
Encoding: 109 109 78
Width: 777
Flags: W
HStem: 0 21G<14 224 283 493 553 763> 404 54<645 697>
DStem: 163 323 253 346 98 80 183 80 422 287 522 344 367 80 452 80 691 283 773 267 637 80 722 80
Fore
763 0 m 1
 553 0 l 1
 556 14 l 1
 605 18 625 37 637 80 c 1
 691 283 l 2
 717 379 708 404 645 404 c 0
 599 404 554 381 522 344 c 1
 452 80 l 1
 439 37 450 18 496 14 c 1
 493 0 l 1
 283 0 l 1
 286 14 l 1
 335 18 355 37 367 80 c 1
 422 287 l 1
 438 339 450 404 384 404 c 0
 343 404 286 381 253 346 c 1
 183 80 l 1
 170 37 181 18 227 14 c 1
 224 0 l 1
 14 0 l 1
 17 14 l 1
 66 18 86 37 98 80 c 1
 163 323 l 1
 181 378 169 389 118 389 c 1
 123 406 l 1
 284 458 l 1
 266 392 l 1
 260 367 289 399 307 410 c 0
 347 436 395 458 439 458 c 0
 490 458 519 421 519 373 c 1
 567 415 641 458 697 458 c 0
 816 458 796 356 773 267 c 1
 722 80 l 1
 710 37 720 18 766 14 c 1
 763 0 l 1
EndSplineSet
MinimumDistance: x2,33 x11,8 x14,5 x20,17 
EndChar
StartChar: n
Encoding: 110 110 79
Width: 499
Flags: W
HStem: 0 21G<9 220 280 490> 404 54<373 433>
DStem: 160 324 250 347 94 80 178 80 421 295 507 296 364 80 449 80
Fore
490 0 m 1
 280 0 l 1
 283 14 l 1
 332 18 352 37 364 80 c 1
 421 295 l 1
 438 353 444 404 373 404 c 0
 326 404 283 373 250 347 c 1
 178 80 l 1
 166 37 177 18 223 14 c 1
 220 0 l 1
 9 0 l 1
 12 14 l 1
 61 18 81 37 94 80 c 1
 160 324 l 1
 180 401 170 399 115 396 c 1
 120 410 l 1
 280 458 l 1
 258 378 l 1
 306 416 362 458 433 458 c 0
 510 458 535 404 507 296 c 1
 449 80 l 1
 436 37 447 18 493 14 c 1
 490 0 l 1
EndSplineSet
MinimumDistance: x2,21 x11,8 
EndChar
StartChar: o
Encoding: 111 111 80
Width: 499
Flags: W
HStem: -11 31<243 269> 427 31<345 369>
Fore
535 238 m 0
 535 238 l 0
 499 108 381 -11 243 -11 c 0
 115 -11 57 97 89 218 c 0
 124 350 230 458 369 458 c 0
 501 458 568 369 535 238 c 0
429 190 m 0
 453 281 461 427 347 427 c 0
 273 427 220 359 195 272 c 0
 157 131 174 20 269 20 c 0
 347 20 406 104 429 190 c 0
EndSplineSet
EndChar
StartChar: p
Encoding: 112 112 81
Width: 499
Flags: W
HStem: -11 34<250 271> 402 56<366 429>
DStem: 163 327 247 324 38 -137 187 103 163 327 169 35 38 -137 123 -137
Fore
535 243 m 0
 535 243 l 0
 499 109 379 -11 250 -11 c 0
 215 -11 186 9 169 35 c 1
 123 -137 l 2
 111 -181 121 -200 189 -203 c 1
 184 -217 l 1
 -55 -217 l 1
 -51 -203 l 1
 6 -200 26 -181 38 -137 c 2
 163 327 l 2
 178 384 183 404 109 396 c 1
 114 410 l 1
 283 458 l 1
 266 396 l 1
 258 373 267 392 296 413 c 0
 332 439 370 458 429 458 c 0
 539 458 567 359 535 243 c 0
438 203 m 0
 461 284 470 402 366 402 c 0
 336 402 304 389 278 369 c 0
 253 352 253 347 247 324 c 2
 187 103 l 2
 180 74 189 60 210 43 c 0
 224 31 246 23 269 23 c 0
 341 23 412 103 438 203 c 0
EndSplineSet
MinimumDistance: x8,5 
EndChar
StartChar: q
Encoding: 113 113 82
Width: 499
Flags: W
HStem: -11 62<190 247> 433 25<353 382>
DStem: 355 60 542 439 303 -137 387 -137 425 323 542 439 376 140 387 -137
Fore
439 -217 m 1
 198 -217 l 1
 203 -203 l 1
 270 -200 290 -181 303 -137 c 2
 355 60 l 1
 303 23 246 -11 190 -11 c 0
 60 -11 54 111 81 214 c 0
 117 343 237 458 373 458 c 0
 413 458 447 447 473 425 c 1
 530 456 l 2
 548 465 545 450 542 439 c 2
 387 -137 l 2
 375 -181 386 -200 444 -203 c 1
 439 -217 l 1
376 140 m 1
 425 323 l 1
 439 370 450 399 407 424 c 0
 390 432 381 433 361 433 c 0
 263 433 198 327 177 244 c 0
 146 134 167 51 247 51 c 0
 278 51 316 61 346 81 c 0
 370 100 370 114 376 140 c 1
EndSplineSet
MinimumDistance: x2,12 
EndChar
StartChar: r
Encoding: 114 114 83
Width: 333
Flags: W
HStem: 0 21G<5 240> 361 97<388 401>
DStem: 160 298 249 318 101 80 186 80
Fore
438 392 m 0
 430 370 410 361 390 361 c 0
 355 361 356 396 332 396 c 0
 312 396 258 347 249 318 c 1
 186 80 l 1
 174 37 184 18 243 14 c 1
 240 0 l 1
 5 0 l 1
 8 14 l 1
 69 18 89 37 101 80 c 1
 160 298 l 1
 186 393 174 406 109 389 c 1
 112 404 l 1
 287 458 l 1
 263 367 l 1
 292 402 350 458 401 458 c 0
 439 458 456 435 438 392 c 0
EndSplineSet
MinimumDistance: x8,5 
EndChar
StartChar: s
Encoding: 115 115 84
Width: 388
Flags: W
HStem: -11 25<192 216> 435 23<299 322>
Fore
381 124 m 0
 358 38 276 -11 197 -11 c 0
 167 -11 152 -3 129 5 c 0
 75 23 69 6 63 -3 c 1
 49 -3 l 1
 92 154 l 1
 109 154 l 1
 101 81 118 14 201 14 c 0
 244 14 289 40 301 84 c 0
 329 190 103 194 140 335 c 0
 161 413 240 458 313 458 c 0
 336 458 353 452 382 439 c 0
 413 429 418 444 422 449 c 1
 435 449 l 1
 399 313 l 1
 384 313 l 1
 384 382 373 435 306 435 c 0
 267 435 224 410 214 370 c 0
 186 270 415 250 381 124 c 0
EndSplineSet
EndChar
StartChar: t
Encoding: 116 116 85
Width: 278
Flags: W
HStem: 416 31<276 367>
DStem: 183 416 269 416 106 129 195 146
Fore
298 68 m 1
 247 20 195 -11 147 -11 c 0
 81 -11 77 31 106 129 c 1
 183 416 l 1
 154 416 l 2
 141 416 117 410 131 430 c 1
 197 468 249 524 312 579 c 1
 276 447 l 1
 375 447 l 1
 367 416 l 1
 269 416 l 1
 195 146 l 1
 177 72 172 25 243 49 c 0
 260 55 275 68 287 80 c 1
 298 68 l 1
EndSplineSet
EndChar
StartChar: u
Encoding: 117 117 86
Width: 499
Flags: W
HStem: -11 59<186 244> 433 14<129 148.035 379 402.225>
DStem: 169 361 276 447 108 132 194 137 429 359 536 447 372 151 449 120
Fore
488 37 m 1
 445 25 387 6 335 -11 c 1
 358 77 l 1
 330 54 l 2
 303 29 250 -11 186 -11 c 0
 106 -11 84 46 108 132 c 2
 169 361 l 1
 184 421 181 433 126 433 c 1
 129 447 l 1
 276 447 l 1
 194 137 l 2
 180 86 189 48 244 48 c 0
 272 48 306 63 332 80 c 0
 366 103 362 115 372 151 c 2
 429 359 l 1
 444 421 442 433 376 433 c 1
 379 447 l 1
 536 447 l 1
 449 120 l 2
 435 68 433 48 493 51 c 1
 488 37 l 1
EndSplineSet
EndChar
StartChar: v
Encoding: 118 118 87
Width: 499
Flags: W
HStem: 433 14<127 134 131 323 445 452 449 584>
DStem: 175 379 269 358 235 17 303 120
Fore
584 433 m 1
 547 433 522 390 492 343 c 1
 270 17 l 2
 266 9 250 -11 244 -11 c 0
 240 -11 237 9 235 17 c 1
 175 379 l 1
 170 416 151 433 127 433 c 1
 131 447 l 1
 326 447 l 1
 323 433 l 1
 260 433 266 395 269 358 c 1
 303 120 l 1
 433 323 l 2
 485 402 504 433 445 433 c 1
 449 447 l 1
 587 447 l 1
 584 433 l 1
EndSplineSet
MinimumDistance: x6,9 
EndChar
StartChar: w
Encoding: 119 119 88
Width: 721
Flags: W
HStem: 433 14<138 144 379 385 690 702.751>
DStem: 180 343 276 244 226 -3 290 117 433 310 444 267 290 117 243 -3 444 267 515 343 478 -3 539 123 676 323 746 370 539 123 495 -3
Fore
809 433 m 1
 780 424 760 387 746 370 c 1
 495 -3 l 2
 493 -6 488 -11 485 -11 c 0
 482 -11 481 -6 478 -3 c 1
 444 267 l 1
 243 -3 l 2
 241 -6 235 -11 232 -11 c 0
 229 -11 227 -6 226 -3 c 1
 180 343 l 1
 172 406 175 433 138 433 c 1
 141 447 l 1
 321 447 l 1
 318 433 l 1
 292 435 270 430 263 399 c 0
 255 375 272 270 276 244 c 1
 290 117 l 1
 433 310 l 1
 430 396 429 433 379 433 c 1
 382 447 l 1
 584 447 l 1
 581 433 l 1
 513 435 507 413 515 343 c 1
 539 123 l 1
 676 323 l 2
 730 402 745 433 687 433 c 1
 690 447 l 1
 813 447 l 1
 809 433 l 1
EndSplineSet
EndChar
StartChar: x
Encoding: 120 120 89
Width: 499
Flags: W
HStem: 0 14<20 32.2375 145 166 477 482> 433 14<144 349 393 402 396 550>
DStem: 266 230 273 197 117 77 172 84 273 197 341 270 338 49 413 84
Fore
479 0 m 1
 278 0 l 1
 281 14 l 1
 319 17 349 26 338 49 c 2
 273 197 l 1
 172 84 l 2
 117 25 114 14 166 14 c 1
 163 0 l 1
 17 0 l 1
 20 14 l 1
 57 14 81 40 117 77 c 2
 266 230 l 1
 215 362 l 1
 200 398 204 430 141 433 c 1
 144 447 l 1
 352 447 l 1
 349 433 l 1
 313 433 301 419 298 407 c 0
 293 392 323 318 330 301 c 1
 349 323 419 384 427 410 c 0
 432 430 407 433 393 433 c 1
 396 447 l 1
 553 447 l 1
 550 433 l 1
 513 433 475 407 447 379 c 2
 341 270 l 1
 413 84 l 2
 429 45 447 14 482 14 c 1
 479 0 l 1
EndSplineSet
MinimumDistance: x2,27 
EndChar
StartChar: y
Encoding: 121 121 90
Width: 499
Flags: W
HStem: -217 100<43 54> 433 14<135 338 461 593>
DStem: 175 390 272 367 247 25 318 114
Fore
593 433 m 1
 573 433 541 399 525 376 c 2
 275 -8 l 2
 226 -83 144 -217 45 -217 c 0
 18 -217 -5 -207 -12 -184 c 1
 -14 -169 -14 -155 -2 -140 c 0
 11 -123 34 -117 52 -117 c 0
 68 -117 86 -127 108 -134 c 0
 134 -140 163 -117 224 -23 c 0
 235 -8 249 14 247 25 c 1
 175 390 l 1
 172 416 160 430 132 433 c 1
 135 447 l 1
 341 447 l 1
 338 433 l 1
 270 433 264 410 272 367 c 2
 318 114 l 1
 490 392 l 1
 504 410 505 430 458 433 c 1
 461 447 l 1
 596 447 l 1
 593 433 l 1
EndSplineSet
MinimumDistance: x11,14 
EndChar
StartChar: z
Encoding: 122 122 91
Width: 443
Flags: W
HStem: 0 31<141 404> 416 31<177 406>
DStem: 406 416 521 433 28 14 141 31
Fore
455 135 m 1
 404 0 l 1
 25 0 l 1
 28 14 l 1
 406 416 l 1
 280 416 l 2
 194 416 180 384 160 330 c 1
 143 330 l 1
 177 447 l 1
 524 447 l 1
 521 433 l 1
 141 31 l 1
 267 31 l 2
 296 31 327 31 359 43 c 1
 401 54 418 106 436 140 c 1
 455 135 l 1
EndSplineSet
EndChar
StartChar: braceleft
Encoding: 123 123 92
Width: 479
Flags: W
DStem: 224 143 290 121 181 -17 246 -43 332 544 409 559 286 370 361 384
Fore
296 -164 m 1
 183 -167 149 -140 181 -17 c 1
 224 143 l 1
 241 209 241 240 180 257 c 1
 246 275 269 307 286 370 c 2
 332 544 l 1
 362 662 424 682 524 682 c 1
 455 665 425 627 409 559 c 1
 361 384 l 1
 343 313 319 275 246 257 c 1
 313 238 310 194 290 121 c 2
 246 -43 l 1
 229 -111 237 -152 296 -164 c 1
EndSplineSet
EndChar
StartChar: bar
Encoding: 124 124 93
Width: 199
Flags: W
HStem: 0 21G<68 132>
DStem: 250 682 315 682 68 0 132 0
Fore
132 0 m 1
 68 0 l 1
 250 682 l 1
 315 682 l 1
 132 0 l 1
EndSplineSet
EndChar
StartChar: braceright
Encoding: 125 125 94
Width: 479
Flags: W
DStem: 255 121 332 143 210 -43 289 -17 373 559 439 544 326 384 393 370
Fore
439 257 m 1
 369 240 349 209 332 143 c 1
 289 -17 l 1
 257 -140 207 -167 95 -164 c 1
 161 -152 194 -111 210 -43 c 1
 255 121 l 2
 275 194 295 238 372 257 c 1
 307 275 307 313 326 384 c 1
 373 559 l 1
 390 627 382 665 323 682 c 1
 422 682 470 662 439 544 c 1
 393 370 l 2
 376 307 381 275 439 257 c 1
EndSplineSet
EndChar
StartChar: asciitilde
Encoding: 126 126 95
Width: 540
Flags: W
HStem: 198 63<435 453> 267 65<232 249>
Fore
605 307 m 1
 561 253 499 198 435 198 c 0
 358 198 301 267 232 267 c 0
 177 267 135 217 101 177 c 1
 77 217 l 1
 121 270 178 332 249 332 c 0
 318 332 399 261 453 261 c 0
 498 261 550 309 581 347 c 1
 605 307 l 1
EndSplineSet
EndChar
StartChar: uni0E10.descless
Encoding: 128 63232 96
Width: 508
Flags: W
HStem: -8 43<290 303> 190 39<189 206> 319 39<219 235>
DStem: 146 439 207 472 401 370 465 401 232 198 326 270 206 106 275 78 416 321 496 332 350 77 435 106
Fore
605 571 m 0
 605 571 l 0
 542 461 439 490 424 496 c 0
 295 541 252 536 207 472 c 1
 465 401 l 1
 479 393 511 392 496 332 c 1
 435 106 l 1
 418 41 369 -8 290 -8 c 0
 226 -8 190 45 206 106 c 1
 232 198 l 1
 217 192 204 190 189 190 c 0
 135 190 114 232 129 280 c 0
 146 324 184 358 233 358 c 0
 315 359 339 319 326 270 c 1
 275 78 l 1
 269 58 275 35 301 35 c 0
 327 35 346 58 350 77 c 2
 416 321 l 1
 425 353 422 364 401 370 c 2
 146 439 l 1
 167 478 233 598 344 594 c 0
 412 594 527 527 594 582 c 0
 605 591 613 587 605 571 c 0
200 229 m 0
 260 229 284 319 224 319 c 0
 166 319 141 229 200 229 c 0
EndSplineSet
KernsSLIF: 212 46 0 0 215 46 0 0 214 46 0 0 213 46 0 0
EndChar
StartChar: uni0E34.left
Encoding: 129 63233 97
Width: 0
Flags: W
Fore
-80 654 m 0
 -80 654 l 0
 -101 667 -209 722 -278 731 c 0
 -373 746 -462 733 -482 728 c 1
 -427 834 -323 900 -221 892 c 0
 -111 885 -49 796 -80 654 c 0
-115 719 m 1
 -124 803 -167 834 -238 843 c 0
 -300 851 -362 820 -396 779 c 1
 -396 779 -323 785 -257 773 c 0
 -167 756 -115 719 -115 719 c 1
EndSplineSet
EndChar
StartChar: uni0E35.left
Encoding: 130 63234 98
Width: 0
Flags: W
DStem: -92 951 -25 951 -118 852 -75 762
Fore
-80 654 m 0
 -80 654 l 0
 -101 667 -209 720 -278 731 c 0
 -376 746 -462 733 -482 728 c 1
 -436 820 -332 900 -230 892 c 0
 -197 891 -152 883 -118 852 c 1
 -92 951 l 1
 -25 951 l 1
 -75 762 l 1
 -75 762 -66 720 -80 654 c 0
-115 719 m 1
 -124 803 -167 834 -238 843 c 0
 -300 851 -362 820 -396 779 c 1
 -396 779 -323 785 -257 773 c 0
 -167 756 -115 719 -115 719 c 1
EndSplineSet
EndChar
StartChar: uni0E36.left
Encoding: 131 63235 99
Width: 0
Flags: W
HStem: 905 41<-77 -61>
Fore
-98 822 m 0
 -98 822 l 0
 -45 822 -22 905 -75 905 c 0
 -127 905 -151 822 -98 822 c 0
-115 719 m 1
 -115 719 l 0
 -124 803 -167 834 -238 843 c 0
 -300 851 -362 820 -396 779 c 1
 -396 779 -323 785 -257 773 c 0
 -167 756 -115 719 -115 719 c 1
-80 654 m 1
 -101 667 -209 720 -278 731 c 0
 -376 746 -462 733 -482 728 c 1
 -436 822 -327 900 -227 892 c 0
 -187 889 -161 877 -161 877 c 1
 -155 908 -115 946 -61 946 c 0
 -14 946 9 908 -2 865 c 0
 -11 829 -41 791 -80 783 c 1
 -80 783 -61 733 -80 654 c 1
EndSplineSet
EndChar
StartChar: uni0E37.left
Encoding: 132 63236 100
Width: 0
Flags: W
DStem: -207 951 -152 951 -226 889 -170 877 -88 951 -29 951 -117 845 -77 763
Fore
-80 654 m 0
 -80 654 l 0
 -101 667 -209 720 -278 731 c 0
 -376 746 -462 733 -482 728 c 1
 -419 851 -300 902 -226 889 c 1
 -207 951 l 1
 -152 951 l 1
 -170 877 l 1
 -138 869 -117 845 -117 845 c 1
 -88 951 l 1
 -29 951 l 1
 -77 763 l 1
 -77 763 -65 723 -80 654 c 0
-115 719 m 1
 -124 803 -167 834 -238 843 c 0
 -300 851 -362 820 -396 779 c 1
 -396 779 -323 785 -257 773 c 0
 -167 756 -115 719 -115 719 c 1
EndSplineSet
EndChar
StartChar: ellipsis
Encoding: 133 8230 101
Width: 998
Flags: W
Fore
902 45 m 0
 902 45 l 0
 892 12 860 -14 828 -14 c 0
 797 -14 779 14 788 45 c 0
 796 74 829 101 859 101 c 0
 889 101 909 75 902 45 c 0
570 45 m 0
 570 45 l 0
 561 12 527 -14 496 -14 c 0
 464 -14 445 14 455 45 c 0
 462 74 496 101 527 101 c 0
 558 101 578 75 570 45 c 0
237 45 m 0
 227 12 195 -14 163 -14 c 0
 132 -14 114 14 123 45 c 0
 131 74 164 101 194 101 c 0
 224 101 244 75 237 45 c 0
EndSplineSet
EndChar
StartChar: uni0E48.low_left
Encoding: 134 63237 102
Width: 0
Flags: W
Fore
-26 926 m 1
 -106 685 l 1
 -157 685 l 1
 -108 926 l 1
 -26 926 l 1
EndSplineSet
EndChar
StartChar: uni0E49.low_left
Encoding: 135 63238 103
Width: 0
Flags: W
HStem: 776 35<-337 -322> 902 35<-303 -291>
Fore
20 931 m 1
 20 931 l 0
 -104 637 -393 667 -422 670 c 1
 -413 703 l 1
 -404 707 -341 734 -310 780 c 1
 -310 780 -321 776 -336 776 c 0
 -447 776 -404 937 -293 937 c 0
 -207 937 -224 857 -224 857 c 1
 -250 765 -324 716 -324 716 c 1
 -323 714 l 1
 -258 723 -114 766 -61 931 c 1
 20 931 l 1
-326 811 m 0
 -266 811 -241 902 -301 902 c 0
 -362 902 -387 811 -326 811 c 0
EndSplineSet
EndChar
StartChar: uni0E4A.low_left
Encoding: 136 63239 104
Width: 0
Flags: W
HStem: 849 54<-321 -306>
Fore
-3 906 m 1
 -3 906 l 0
 -32 768 -126 684 -257 670 c 1
 -250 694 l 1
 -186 728 -163 836 -210 849 c 1
 -278 811 l 1
 -321 849 l 1
 -358 849 -396 806 -401 768 c 1
 -401 768 -382 800 -333 800 c 0
 -295 800 -276 770 -284 737 c 0
 -295 697 -327 667 -370 667 c 0
 -433 667 -456 720 -438 793 c 0
 -424 843 -358 903 -306 903 c 1
 -306 903 -264 857 -263 857 c 2
 -198 902 l 1
 -91 872 -137 771 -170 728 c 1
 -103 766 -71 834 -68 906 c 1
 -3 906 l 1
-316 733 m 0
 -303 783 -378 783 -392 733 c 0
 -406 684 -330 684 -316 733 c 0
EndSplineSet
EndChar
StartChar: uni0E4B.low_left
Encoding: 137 63240 105
Width: 0
Flags: W
HStem: 776 58<-300 -200 -121 -25>
DStem: -200 776 -140 776 -224 676 -167 676 -184 836 -121 836 -300 834 -11 834 -160 935 -94 935 -184 836 -121 836
Fore
-25 777 m 1
 -140 776 l 1
 -167 676 l 1
 -224 676 l 1
 -200 776 l 1
 -313 777 l 1
 -300 834 l 1
 -184 836 l 1
 -160 935 l 1
 -94 935 l 1
 -121 836 l 1
 -11 834 l 1
 -25 777 l 1
EndSplineSet
MinimumDistance: x6,11 x5,0 
EndChar
StartChar: uni0E4C.low_left
Encoding: 138 63241 106
Width: 0
Flags: W
HStem: 670 33<-255 -242>
Fore
29 954 m 1
 29 954 l 0
 -9 846 -144 823 -178 817 c 2
 -181 816 l 1
 -154 811 -144 777 -154 748 c 0
 -164 707 -204 670 -253 670 c 0
 -303 670 -326 707 -315 748 c 0
 -304 786 -280 831 -169 860 c 0
 -115 876 -52 906 -38 968 c 1
 29 954 l 1
-244 703 m 0
 -186 703 -164 788 -223 788 c 0
 -281 788 -303 703 -244 703 c 0
EndSplineSet
EndChar
StartChar: uni0E48.low
Encoding: 139 63242 107
Width: 0
Flags: W
AnchorPoint: "AboveBase" 31.1396 645.12 mark 0
Fore
98 914 m 1
 31 670 l 1
 -28 670 l 1
 6 914 l 1
 98 914 l 1
EndSplineSet
Substitution: 0 65534 'amni' uni0E4D
EndChar
StartChar: uni0E49.low
Encoding: 140 63243 108
Width: 0
Flags: W
HStem: 776 37<-145 -133> 919 36<-114 -102>
AnchorPoint: "AboveBase" 31.1396 645.12 mark 0
Fore
223 952 m 1
 223 952 l 0
 124 636 -189 667 -221 670 c 1
 -214 705 l 1
 -204 708 -143 733 -112 780 c 1
 -112 780 l 1
 -112 780 -126 776 -143 776 c 0
 -266 776 -227 955 -104 955 c 0
 -9 955 -26 868 -26 866 c 0
 -48 765 -126 716 -126 716 c 1
 -124 716 l 1
 -124 716 84 722 141 952 c 1
 223 952 l 1
-135 813 m 0
 -63 813 -40 919 -112 919 c 0
 -181 919 -204 813 -135 813 c 0
EndSplineSet
Substitution: 0 65534 'amni' uni0E4D
EndChar
StartChar: uni0E4A.low
Encoding: 141 63244 109
Width: 0
Flags: W
HStem: 876 56<-166 -151>
AnchorPoint: "AboveBase" 31.1396 645.12 mark 0
Fore
204 926 m 1
 204 926 l 0
 180 799 83 691 -80 670 c 1
 -74 699 l 1
 -3 737 17 859 -38 876 c 1
 -112 831 l 1
 -118 836 -166 876 -166 876 c 1
 -206 876 -253 816 -250 777 c 1
 -249 777 l 1
 -249 777 -230 814 -178 814 c 0
 -138 814 -112 782 -120 745 c 0
 -129 702 -163 668 -210 668 c 0
 -281 668 -306 733 -289 809 c 0
 -278 862 -210 931 -151 932 c 1
 -149 931 -101 883 -100 883 c 2
 -29 932 l 1
 117 888 14 739 14 739 c 1
 15 739 l 2
 72 770 132 852 129 926 c 1
 204 926 l 1
-155 739 m 0
 -143 796 -226 796 -238 739 c 0
 -249 685 -166 685 -155 739 c 0
EndSplineSet
Substitution: 0 65534 'amni' uni0E4D
EndChar
StartChar: uni0E4B.low
Encoding: 142 63245 110
Width: 0
Flags: W
HStem: 777 62<-111 -9 68 166>
DStem: -9 777 54 777 -29 677 31 677 2 840 68 840 -111 839 178 839 22 942 91 942 2 840 68 840
AnchorPoint: "AboveBase" 31.1396 645.12 mark 0
Fore
166 779 m 1
 54 777 l 1
 31 677 l 1
 -29 677 l 1
 -9 777 l 1
 -123 779 l 1
 -111 839 l 1
 2 840 l 1
 22 942 l 1
 91 942 l 1
 68 840 l 1
 178 839 l 1
 166 779 l 1
EndSplineSet
MinimumDistance: x6,11 x5,0 
Substitution: 0 65534 'amni' uni0E4D
EndChar
StartChar: uni0E4C.low
Encoding: 143 63246 111
Width: 0
Flags: W
HStem: 668 39<-68 -55>
AnchorPoint: "AboveBase" 31.1396 645.12 mark 0
Fore
201 949 m 1
 201 949 l 0
 158 854 40 833 3 826 c 2
 0 825 l 1
 35 819 43 782 37 751 c 0
 28 707 -15 668 -66 668 c 0
 -124 668 -144 707 -135 754 c 0
 -126 793 -104 837 8 871 c 0
 63 888 112 917 134 971 c 1
 201 949 l 1
-57 707 m 0
 0 707 18 794 -38 794 c 0
 -100 794 -118 707 -57 707 c 0
EndSplineSet
EndChar
StartChar: uni0E0D.descless
Encoding: 144 63247 112
Width: 797
Flags: W
HStem: -5 37<537 552> 393 45<210 235 210 370>
DStem: 502 409 581 415 424 115 498 104
Fore
722 108 m 1
 722 108 l 0
 708 55 627 -5 539 -5 c 0
 453 -5 407 51 424 115 c 2
 502 409 l 1
 556 605 290 590 210 438 c 1
 381 438 l 1
 370 393 l 1
 359 393 324 393 323 393 c 0
 278 393 266 343 266 343 c 1
 264 339 217 158 217 158 c 1
 370 206 341 2 210 -5 c 0
 111 -9 115 72 126 112 c 2
 184 333 l 2
 197 379 235 393 235 393 c 1
 152 393 l 1
 223 648 636 677 581 415 c 1
 498 104 l 2
 487 65 507 32 550 32 c 0
 598 32 633 63 644 103 c 2
 757 530 l 1
 823 588 l 1
 836 596 854 602 845 567 c 0
 845 565 722 108 722 108 c 1
221 35 m 0
 281 35 306 124 246 124 c 0
 186 124 161 35 221 35 c 0
EndSplineSet
EndChar
StartChar: quoteleft
Encoding: 145 8216 113
Width: 333
Flags: W
Fore
382 524 m 0
 372 482 341 456 298 456 c 0
 235 456 224 515 238 565 c 0
 255 630 338 700 407 728 c 1
 413 700 l 1
 370 679 306 624 296 588 c 0
 295 582 292 578 298 578 c 0
 306 578 316 587 336 585 c 0
 370 584 393 561 382 524 c 0
EndSplineSet
EndChar
StartChar: quoteright
Encoding: 146 8217 114
Width: 333
Flags: W
Fore
266 659 m 0
 276 700 309 727 352 727 c 0
 415 727 425 668 412 617 c 0
 393 553 310 482 241 455 c 1
 235 482 l 1
 278 504 344 559 353 594 c 0
 355 601 358 605 352 605 c 0
 344 605 332 596 312 598 c 0
 278 599 257 622 266 659 c 0
EndSplineSet
EndChar
StartChar: quotedblleft
Encoding: 147 8220 115
Width: 473
Flags: W
Fore
568 524 m 0
 568 524 l 0
 558 482 527 456 484 456 c 0
 421 456 410 515 424 565 c 0
 441 630 524 700 593 728 c 1
 599 700 l 1
 556 679 492 624 482 588 c 0
 481 582 478 578 484 578 c 0
 492 578 502 587 522 585 c 0
 556 584 579 561 568 524 c 0
321 524 m 0
 310 482 280 456 237 456 c 0
 174 456 163 515 177 565 c 0
 194 630 276 700 346 728 c 1
 352 700 l 1
 309 679 244 624 235 588 c 0
 233 582 230 578 237 578 c 0
 244 578 255 587 275 585 c 0
 309 584 332 561 321 524 c 0
EndSplineSet
EndChar
StartChar: quotedblright
Encoding: 148 8221 116
Width: 473
Flags: W
Fore
220 659 m 0
 220 659 l 0
 230 700 263 727 306 727 c 0
 369 727 379 668 366 617 c 0
 347 553 264 482 195 455 c 1
 189 482 l 1
 232 504 298 559 307 594 c 0
 309 601 312 605 306 605 c 0
 298 605 286 596 266 598 c 0
 232 599 210 622 220 659 c 0
467 659 m 0
 478 700 510 727 553 727 c 0
 616 727 627 668 613 617 c 0
 594 553 511 482 442 455 c 1
 436 482 l 1
 479 504 545 559 554 594 c 0
 556 601 559 605 553 605 c 0
 545 605 533 596 513 598 c 0
 479 599 458 622 467 659 c 0
EndSplineSet
EndChar
StartChar: bullet
Encoding: 149 8226 117
Width: 385
Flags: W
HStem: 430 20G<277 350>
Fore
409 319 m 0
 389 247 316 189 243 189 c 0
 172 189 129 247 149 319 c 1
 166 392 241 450 313 450 c 0
 387 450 427 392 409 319 c 0
EndSplineSet
EndChar
StartChar: endash
Encoding: 150 8211 118
Width: 768
Flags: W
HStem: 214 47<103 791>
Fore
791 214 m 1
 91 214 l 1
 104 261 l 1
 805 261 l 1
 791 214 l 1
EndSplineSet
EndChar
StartChar: emdash
Encoding: 151 8212 119
Width: 1536
Flags: W
HStem: 214 47<91 1571>
Fore
1571 214 m 1
 78 214 l 1
 92 261 l 1
 1585 261 l 1
 1571 214 l 1
EndSplineSet
EndChar
StartChar: uni0E31.left
Encoding: 152 63248 120
Width: 0
Flags: W
HStem: 871 41<-171 -160>
Fore
309 908 m 1
 309 908 l 0
 166 628 -270 616 -275 800 c 0
 -276 854 -227 911 -160 912 c 0
 -120 914 -89 892 -91 851 c 0
 -91 774 -163 745 -163 745 c 1
 12 682 187 816 221 908 c 1
 309 908 l 1
-194 780 m 0
 -134 780 -109 871 -169 871 c 0
 -230 871 -255 780 -194 780 c 0
EndSplineSet
EndChar
StartChar: uni0E4D.left
Encoding: 153 63249 121
Width: 0
Flags: W
HStem: 676 41<-170 -156> 820 43<-133 -118>
Fore
-169 676 m 0
 -169 676 l 0
 -293 676 -243 863 -118 863 c 0
 5 863 -43 676 -169 676 c 0
-158 717 m 0
 -89 717 -61 820 -131 820 c 0
 -201 820 -229 717 -158 717 c 0
EndSplineSet
EndChar
StartChar: uni0E47.left
Encoding: 154 63250 122
Width: 0
Flags: W
HStem: 668 85<-352 -351.48> 745 55<-286 -276>
Fore
32 995 m 1x80
 32 995 l 0
 5 895 -60 837 -210 868 c 0
 -272 880 -316 882 -344 822 c 0
 -356 794 -356 763 -352 753 c 1x80
 -352 753 -329 800 -276 800 c 0
 -224 800 -217 746 -194 734 c 1
 -194 734 -195 740 -194 748 c 0
 -167 845 -22 843 -48 745 c 0x40
 -61 693 -108 668 -140 668 c 0x80
 -240 668 -233 745 -284 745 c 0x40
 -336 745 -346 684 -335 668 c 1
 -372 668 l 1
 -406 702 -419 773 -381 846 c 0
 -359 891 -298 952 -180 923 c 0
 -101 905 -57 911 -38 995 c 1
 32 995 l 1x80
-83 745 m 0x40
 -69 797 -146 797 -160 745 c 0
 -174 696 -97 696 -83 745 c 0x40
EndSplineSet
EndChar
StartChar: uni0E48.left
Encoding: 155 63251 123
Width: 0
Flags: W
Fore
52 1226 m 1
 -18 1006 l 1
 -72 1006 l 1
 -26 1226 l 1
 52 1226 l 1
EndSplineSet
EndChar
StartChar: uni0E49.left
Encoding: 156 63252 124
Width: 0
Flags: W
HStem: 1078 33<-88 -77> 1195 34<-58 -46>
Fore
252 1229 m 1
 252 1229 l 0
 178 1052 9 975 -169 997 c 1
 -161 1026 l 1
 -134 1034 -98 1049 -72 1081 c 1
 -72 1081 -81 1078 -86 1078 c 0
 -192 1078 -152 1229 -46 1229 c 0
 32 1229 14 1154 14 1154 c 1
 -8 1072 -74 1035 -74 1035 c 1
 -75 1032 l 1
 34 1038 134 1098 177 1229 c 1
 252 1229 l 1
-77 1111 m 0
 -22 1111 0 1195 -55 1195 c 0
 -115 1195 -137 1111 -77 1111 c 0
EndSplineSet
EndChar
StartChar: uni0E4A.left
Encoding: 157 63253 125
Width: 0
Flags: W
HStem: 1175 54<-68 -54>
Fore
249 1229 m 1
 249 1229 l 0
 220 1091 123 1012 -3 995 c 1
 3 1020 l 1
 68 1054 91 1161 43 1175 c 1
 -25 1137 l 1
 -68 1175 l 1
 -104 1175 -144 1132 -147 1094 c 1
 -147 1094 -131 1126 -81 1126 c 0
 -43 1126 -23 1095 -32 1063 c 0
 -43 1023 -74 994 -117 994 c 0
 -180 994 -204 1046 -184 1118 c 0
 -170 1169 -106 1229 -54 1229 c 1
 -54 1229 -12 1183 -11 1183 c 2
 55 1229 l 1
 163 1200 115 1097 83 1054 c 1
 151 1092 183 1157 184 1229 c 1
 249 1229 l 1
-63 1058 m 0
 -51 1109 -126 1109 -138 1058 c 0
 -152 1011 -77 1011 -63 1058 c 0
EndSplineSet
EndChar
StartChar: uni0E4B.left
Encoding: 158 63254 126
Width: 0
Flags: W
HStem: 1080 58<-146 -55 23 111>
DStem: -55 1080 5 1080 -77 992 -20 992 -40 1140 23 1140 -146 1138 126 1138 -18 1229 48 1229 -40 1140 23 1140
Fore
111 1081 m 1
 5 1080 l 1
 -20 992 l 1
 -77 992 l 1
 -55 1080 l 1
 -161 1081 l 1
 -146 1138 l 1
 -40 1140 l 1
 -18 1229 l 1
 48 1229 l 1
 23 1140 l 1
 126 1138 l 1
 111 1081 l 1
EndSplineSet
MinimumDistance: x6,11 x5,0 
EndChar
StartChar: uni0E4C.left
Encoding: 159 63255 127
Width: 0
Flags: W
HStem: 923 29<-70 -59>
Fore
212 1164 m 1
 212 1164 l 0
 152 1064 -5 1063 3 1060 c 0
 61 1031 14 923 -68 923 c 0
 -117 923 -138 954 -126 997 c 0
 -111 1057 -54 1091 20 1103 c 0
 48 1107 140 1140 157 1193 c 1
 212 1164 l 1
-61 952 m 0
 -5 952 18 1035 -38 1035 c 0
 -94 1035 -117 952 -61 952 c 0
EndSplineSet
EndChar
StartChar: uni0E01
Encoding: 161 3585 129
Width: 602
Flags: W
HStem: 0 21G<95 175 422 499> 392 44<214 233 214 372>
DStem: 183 324 266 341 95 0 175 0 531 407 610 413 422 0 499 0
Fore
499 0 m 1
 422 0 l 1
 531 407 l 2
 584 601 296 584 214 436 c 1
 384 436 l 1
 372 392 l 1
 361 392 324 392 323 392 c 0
 280 392 266 341 266 341 c 1
 175 0 l 1
 95 0 l 1
 183 324 l 1
 195 373 233 392 233 392 c 1
 149 392 l 1
 218 650 665 677 610 413 c 1
 499 0 l 1
EndSplineSet
EndChar
StartChar: uni0E02
Encoding: 162 3586 130
Width: 585
Flags: W
HStem: -8 43<358 371> 319 33<207 221> 438 34<235 247> 547 51<306 330>
DStem: 356 453 435 449 263 106 336 78
Fore
510 106 m 1
 510 106 l 0
 493 40 438 -8 358 -8 c 0
 286 -8 246 41 263 106 c 1
 356 453 l 2
 370 505 355 547 306 547 c 0
 253 547 209 513 192 453 c 1
 215 468 224 472 247 472 c 0
 353 470 307 319 209 319 c 0
 129 319 132 407 154 468 c 0
 178 539 243 598 330 598 c 0
 422 598 458 531 435 449 c 1
 336 78 l 1
 330 57 343 35 369 35 c 0
 393 35 419 58 424 77 c 2
 545 530 l 1
 611 588 l 1
 624 596 644 602 634 567 c 0
 634 565 510 106 510 106 c 1
215 352 m 0
 272 352 295 438 238 438 c 0
 181 438 158 352 215 352 c 0
EndSplineSet
EndChar
StartChar: uni0E03
Encoding: 163 3587 131
Width: 634
Flags: W
HStem: -8 43<405 418> 280 32<190 204> 399 34<222 235>
DStem: 253 524 272 593 306 452 323 515 409 461 488 461 310 106 384 78 416 591 396 524 323 515 306 452
Fore
558 106 m 1
 558 106 l 0
 541 40 485 -8 406 -8 c 0
 333 -8 295 45 310 106 c 1
 409 461 l 2
 418 495 418 524 396 524 c 1
 306 452 l 1
 253 524 l 1
 223 524 189 482 178 413 c 1
 178 413 198 433 233 433 c 0
 338 433 295 280 190 280 c 0
 103 280 115 390 147 470 c 0
 178 545 229 581 272 593 c 1
 323 515 l 1
 416 591 l 1
 481 587 510 536 488 461 c 1
 384 78 l 2
 378 57 387 35 416 35 c 0
 444 35 467 58 472 77 c 2
 593 530 l 1
 659 588 l 1
 671 596 691 602 682 567 c 0
 682 565 558 106 558 106 c 1
200 312 m 0
 260 312 284 399 224 399 c 0
 166 399 144 312 200 312 c 0
EndSplineSet
EndChar
StartChar: uni0E04
Encoding: 164 3588 132
Width: 589
Flags: W
HStem: 0 21G<101 180 412 488> 273 36<324 340> 407 37<356 374> 553 46<388 414>
DStem: 161 224 241 229 101 0 180 0 519 401 596 401 412 0 488 0
Fore
338 309 m 0
 338 309 l 0
 406 309 432 407 364 407 c 0
 298 407 272 309 338 309 c 0
210 321 m 1
 237 376 287 444 370 444 c 0
 487 444 442 273 324 273 c 0
 286 273 272 301 272 301 c 1
 257 280 246 246 241 229 c 2
 180 0 l 1
 101 0 l 1
 161 224 l 2
 172 266 118 310 146 413 c 0
 175 519 289 599 407 599 c 4
 531 599 637 554 596 401 c 2
 488 0 l 1
 412 0 l 1
 519 401 l 2
 551 521 484 553 393 553 c 0
 296 553 210 479 192 413 c 0
 180 369 184 335 210 321 c 1
EndSplineSet
EndChar
StartChar: uni0E05
Encoding: 165 3589 133
Width: 588
Flags: W
HStem: 0 21G<101 180 410 487> 273 36<324 340> 407 37<356 374>
DStem: 163 229 244 240 101 0 180 0 310 538 330 594 384 468 398 524 504 594 492 538 398 524 384 468 518 399 594 399 410 0 487 0
Fore
487 0 m 1
 410 0 l 1
 518 399 l 2
 533 458 548 504 492 538 c 1
 384 468 l 1
 310 538 l 1
 272 528 212 479 194 413 c 0
 181 366 189 335 212 321 c 1
 243 390 287 444 370 444 c 0
 487 444 442 273 324 273 c 0
 289 273 273 295 273 295 c 1
 261 287 252 267 244 240 c 2
 180 0 l 1
 101 0 l 1
 163 229 l 1
 174 272 120 316 146 413 c 0
 177 530 283 581 330 594 c 1
 398 524 l 1
 504 594 l 1
 539 588 634 551 594 399 c 1
 487 0 l 1
338 309 m 0
 406 309 432 407 364 407 c 0
 298 407 272 309 338 309 c 0
EndSplineSet
EndChar
StartChar: uni0E06
Encoding: 166 3590 134
Width: 757
Flags: W
HStem: -8 206<283 341> 280 32<194 209> 399 34<227 240>
DStem: 258 524 276 593 310 452 327 515 413 461 493 461 341 198 418 190 421 591 401 524 327 515 310 452
Fore
306 68 m 0
 326 144 l 0
 266 149 237 75 260 51 c 1
 269 45 301 40 306 68 c 0
413 461 m 1
 413 461 l 0
 422 495 422 524 401 524 c 1
 310 452 l 1
 258 524 l 1
 227 524 194 482 183 413 c 1
 183 413 203 433 238 433 c 0
 343 433 300 280 195 280 c 0
 108 280 120 390 152 470 c 0
 183 545 233 581 276 593 c 1
 327 515 l 1
 421 591 l 1
 485 587 515 536 493 461 c 1
 418 190 l 1
 418 190 545 170 594 77 c 1
 716 527 l 1
 780 585 l 1
 791 593 813 599 802 564 c 0
 802 562 664 45 651 0 c 1
 570 0 l 1
 527 134 407 141 407 141 c 1
 386 57 369 -8 283 -8 c 0
 143 -9 209 200 341 198 c 1
 413 461 l 1
204 312 m 0
 264 312 289 399 229 399 c 0
 170 399 149 312 204 312 c 0
EndSplineSet
EndChar
StartChar: uni0E07
Encoding: 167 3591 135
Width: 479
Flags: W
HStem: 0 21G<295 378> 418 37<367 381> 556 38<402 424>
Fore
378 0 m 1
 295 0 l 1
 118 269 l 1
 135 326 l 1
 324 98 l 1
 413 432 l 1
 399 419 382 418 369 418 c 0
 243 418 290 594 424 594 c 0
 545 594 511 501 508 488 c 0
 508 487 378 0 378 0 c 1
375 455 m 0
 444 455 472 556 402 556 c 0
 333 556 306 455 375 455 c 0
EndSplineSet
EndChar
StartChar: uni0E08
Encoding: 168 3592 136
Width: 565
Flags: W
HStem: -5 43<336 351> 276 40<252 265> 406 41<287 304> 544 54<387 406>
DStem: 292 286 389 355 244 109 315 81 495 419 573 413 404 80 492 109
Fore
492 109 m 1
 492 109 l 0
 475 43 416 -5 336 -5 c 0
 270 -5 227 48 244 109 c 2
 292 286 l 1
 278 280 266 276 252 276 c 0
 197 276 178 321 192 367 c 0
 207 413 250 447 304 447 c 0
 389 449 401 402 389 355 c 1
 315 81 l 2
 309 60 321 38 349 38 c 0
 378 38 399 61 404 80 c 2
 495 419 l 2
 515 495 470 544 389 544 c 0
 280 544 200 464 183 439 c 1
 154 453 l 1
 190 508 290 598 402 598 c 0
 535 598 605 533 573 413 c 2
 492 109 l 1
263 316 m 0
 323 316 347 406 287 406 c 0
 227 406 203 316 263 316 c 0
EndSplineSet
EndChar
StartChar: uni0E09
Encoding: 169 3593 137
Width: 615
Flags: W
HStem: -8 40<465 480>
DStem: 241 240 332 292 177 0 278 91
Fore
559 181 m 0
 559 181 l 0
 554 169 539 164 539 164 c 1
 538 161 l 1
 616 141 576 -8 465 -8 c 0
 425 -8 404 15 401 54 c 0
 399 94 435 127 435 127 c 1
 319 106 260 14 252 0 c 1
 177 0 l 1
 241 240 l 1
 86 194 108 395 243 404 c 0
 338 410 350 361 332 292 c 2
 278 91 l 1
 284 89 l 1
 284 89 344 166 478 172 c 1
 542 415 l 2
 562 490 511 544 416 544 c 0
 310 544 217 464 198 439 c 1
 169 453 l 1
 339 677 677 622 622 416 c 2
 622 416 559 183 559 181 c 0
209 272 m 0
 209 272 l 0
 269 272 295 364 235 364 c 0
 175 364 149 272 209 272 c 0
476 32 m 0
 539 32 562 121 499 121 c 0
 439 121 416 32 476 32 c 0
EndSplineSet
EndChar
StartChar: uni0E0A
Encoding: 170 3594 138
Width: 583
Flags: W
HStem: 0 49<182 371> 319 33<207 219> 438 34<233 249> 547 49<298 327>
DStem: 355 453 419 398 247 49 327 49
Fore
696 591 m 1
 696 591 l 0
 624 447 511 421 511 421 c 1
 628 387 528 -2 369 0 c 2
 169 0 l 1
 183 49 l 1
 247 49 l 1
 355 453 l 1
 369 502 359 547 298 547 c 0
 241 547 197 493 192 450 c 1
 207 467 227 472 249 472 c 0
 350 468 306 319 209 319 c 0
 135 319 126 393 151 465 c 0
 177 539 241 596 327 596 c 0
 476 596 435 450 435 450 c 1
 525 445 593 531 610 591 c 1
 696 591 l 1
215 352 m 0
 215 352 l 0
 270 352 293 438 238 438 c 0
 178 438 155 352 215 352 c 0
472 387 m 1
 456 396 436 399 419 398 c 1
 327 49 l 1
 369 49 l 2
 455 49 530 335 472 387 c 1
EndSplineSet
EndChar
StartChar: uni0E0B
Encoding: 171 3595 139
Width: 649
Flags: W
HStem: 0 49<236 423> 280 32<194 209> 399 34<224 240>
DStem: 258 524 276 593 310 452 327 515 413 461 478 399 300 49 379 49 421 591 401 524 327 515 310 452
Fore
524 386 m 0
 524 386 l 0
 508 395 498 399 478 399 c 1
 379 49 l 1
 421 49 l 2
 504 51 585 333 524 386 c 0
413 461 m 1
 413 461 l 0
 422 495 422 524 401 524 c 1
 310 452 l 1
 258 524 l 1
 227 524 194 482 183 413 c 1
 183 413 203 433 238 433 c 0
 343 433 300 280 195 280 c 0
 108 280 120 390 152 470 c 0
 183 545 233 581 276 593 c 1
 327 515 l 1
 421 591 l 1
 485 587 515 536 493 461 c 1
 492 450 l 1
 587 445 645 531 662 591 c 1
 748 591 l 1
 685 456 565 422 565 422 c 1
 676 379 581 -2 421 0 c 2
 223 0 l 1
 237 49 l 1
 300 49 l 1
 413 461 l 1
204 312 m 0
 264 312 289 399 229 399 c 0
 170 399 149 312 204 312 c 0
EndSplineSet
EndChar
StartChar: uni0E0C
Encoding: 172 3596 140
Width: 815
Flags: W
HStem: -8 39<195 206> 392 44<214 372>
DStem: 531 407 610 413 467 166 542 163
Fore
710 0 m 0
 631 0 l 0
 639 111 531 120 531 120 c 1
 513 52 492 -8 416 -8 c 0
 298 -8 353 170 467 166 c 1
 531 407 l 1
 582 604 296 582 214 436 c 1
 384 436 l 1
 372 392 l 1
 361 392 324 392 323 392 c 0
 278 392 266 341 266 341 c 1
 266 338 217 154 217 154 c 1
 353 190 326 -8 197 -8 c 0
 115 -8 114 69 124 109 c 2
 183 324 l 1
 195 375 233 392 233 392 c 1
 149 392 l 1
 220 650 665 677 610 413 c 1
 542 163 l 1
 542 163 636 149 657 94 c 1
 774 527 l 1
 837 585 l 1
 849 593 869 599 860 564 c 0
 860 562 722 45 710 0 c 0
439 61 m 0
 456 126 l 0
 409 131 370 71 395 41 c 1
 406 34 432 28 439 61 c 0
204 31 m 0
 267 31 292 121 229 121 c 0
 169 121 144 31 204 31 c 0
EndSplineSet
EndChar
StartChar: uni0E0D
Encoding: 173 3597 141
Width: 800
Flags: W
HStem: -230 32<461 492> -8 37<539 553> 392 44<214 372>
DStem: 504 407 582 413 425 112 499 101
Fore
722 104 m 1
 722 104 l 0
 708 54 630 -8 541 -8 c 0
 455 -8 407 48 425 112 c 1
 504 407 l 2
 556 605 286 573 214 436 c 1
 384 436 l 1
 372 392 l 1
 361 392 324 392 323 392 c 0
 278 392 266 341 266 341 c 1
 266 338 217 154 217 154 c 1
 373 204 343 -2 210 -8 c 0
 112 -12 114 69 124 109 c 2
 183 324 l 1
 195 375 233 392 233 392 c 1
 149 392 l 1
 226 650 636 676 582 413 c 1
 499 101 l 2
 488 61 508 29 551 29 c 0
 596 29 633 60 644 100 c 2
 759 527 l 1
 822 585 l 1
 834 593 854 599 845 564 c 0
 845 562 722 104 722 104 c 1
665 -108 m 1
 665 -108 l 0
 653 -155 591 -230 472 -230 c 0
 353 -230 362 -140 370 -112 c 0
 379 -84 409 -38 472 -38 c 0
 513 -38 528 -68 518 -108 c 0
 510 -140 473 -169 438 -169 c 0
 421 -169 412 -163 404 -157 c 1
 410 -180 433 -198 479 -198 c 0
 533 -198 582 -152 596 -106 c 1
 610 -52 l 1
 680 -52 l 1
 665 -108 l 1
221 32 m 0
 221 32 l 0
 284 32 307 121 244 121 c 0
 184 121 161 32 221 32 c 0
490 -103 m 0
 504 -54 429 -54 415 -103 c 0
 401 -154 476 -154 490 -103 c 0
EndSplineSet
Substitution: 0 65534 'nds0' uni0E0D.descless
Substitution: 0 65534 'ndsc' uni0E0D.descless
EndChar
StartChar: uni0E0E
Encoding: 174 3598 142
Width: 612
Flags: W
HStem: -212 43<135 151> -8 40<96 111> 392 44<198 361>
DStem: 177 332 257 341 141 163 201 80 518 407 596 407 398 -160 459 -241
AnchorPoint: "BelowBase" 457.714 -245.76 basechar 0
Fore
459 -241 m 5
 381 -241 l 0
 381 -217 343 -141 281 -111 c 1
 281 -111 227 -212 140 -212 c 0
 81 -212 43 -183 55 -126 c 0
 68 -61 164 -14 261 -55 c 1
 261 -55 289 -3 329 12 c 1
 361 -5 l 1
 313 -34 300 -69 300 -69 c 1
 375 -97 398 -160 398 -160 c 1
 518 407 l 2
 559 601 273 585 198 436 c 1
 370 436 l 1
 361 392 l 1
 313 392 l 2
 266 392 257 341 257 341 c 1
 201 80 l 2
 189 25 146 -8 98 -8 c 0
 -15 -8 23 169 141 163 c 1
 177 332 l 2
 186 378 221 392 221 392 c 1
 137 392 l 1
 203 664 651 667 596 407 c 2
 459 -241 l 5
106 32 m 0
 106 32 l 0
 166 32 186 121 126 121 c 0
 66 121 46 32 106 32 c 0
243 -95 m 1
 218 -86 194 -83 172 -83 c 0
 140 -83 106 -94 100 -126 c 0
 91 -163 126 -169 149 -169 c 0
 197 -169 229 -121 243 -95 c 1
EndSplineSet
EndChar
StartChar: uni0E0F
Encoding: 175 3599 143
Width: 612
Flags: W
HStem: -111 43<55 70> -8 40<96 112> 392 44<198 361>
DStem: 177 332 257 341 141 163 201 80 518 407 596 407 399 -155 459 -241
AnchorPoint: "BelowBase" 457.714 -245.76 basechar 0
Fore
106 32 m 0
 106 32 l 0
 166 32 186 121 126 121 c 0
 66 121 46 32 106 32 c 0
109 -129 m 0
 109 -129 l 0
 94 -117 75 -111 58 -111 c 0
 8 -111 -8 -135 -11 -154 c 0
 -15 -174 -8 -201 35 -198 c 0
 68 -195 86 -164 109 -129 c 0
137 -89 m 1
 155 -63 180 -40 217 -26 c 1
 241 -54 l 1
 209 -66 186 -89 167 -115 c 1
 189 -137 204 -164 209 -187 c 1
 263 -103 359 -92 399 -155 c 1
 518 407 l 2
 559 601 273 585 198 436 c 1
 370 436 l 1
 361 392 l 1
 313 392 l 2
 266 392 257 341 257 341 c 1
 201 80 l 2
 189 25 146 -8 98 -8 c 0
 -15 -8 22 169 141 163 c 1
 177 332 l 2
 187 381 223 392 223 392 c 1
 137 392 l 1
 203 664 651 667 596 407 c 2
 459 -241 l 5
 386 -241 l 1
 370 -137 269 -137 220 -240 c 1
 174 -240 l 1
 175 -210 160 -180 138 -157 c 1
 111 -197 83 -233 28 -240 c 0
 -51 -247 -61 -186 -54 -155 c 0
 -41 -95 14 -68 68 -68 c 0
 92 -68 115 -75 137 -89 c 1
EndSplineSet
EndChar
StartChar: uni0E10
Encoding: 176 3600 144
Width: 508
Flags: W
HStem: -276 53<155 281> -233 35<17 28> -186 29<261 276> -83 37<275 290> -8 43<290 309> 190 39<189 206> 319 39<222 235>
DStem: 146 439 207 472 401 370 465 401 232 198 326 270 206 106 275 78 416 321 496 332 350 77 435 106
Fore
605 571 m 0x3e
 605 571 l 0
 542 461 439 490 424 496 c 0
 295 541 252 536 207 472 c 1
 465 401 l 1
 479 393 511 392 496 332 c 1
 435 106 l 1
 418 41 369 -8 290 -8 c 0
 226 -8 190 45 206 106 c 1
 232 198 l 1
 217 192 204 190 189 190 c 0
 135 190 114 232 129 280 c 0
 146 324 184 358 233 358 c 0
 315 359 339 319 326 270 c 1
 275 78 l 1
 269 58 275 35 301 35 c 0
 327 35 346 58 350 77 c 2
 416 321 l 1
 425 353 422 364 401 370 c 2
 146 439 l 1
 167 478 233 598 344 594 c 0
 412 594 527 527 594 582 c 0
 605 591 613 587 605 571 c 0x3e
349 -218 m 1
 349 -218 l 0
 343 -243 323 -276 281 -276 c 2
 100 -276 l 1xbe
 114 -226 l 1
 120 -198 123 -175 109 -149 c 1
 108 -161 89 -233 17 -233 c 0x7e
 -15 -233 -32 -214 -32 -178 c 0
 -31 -134 20 -81 88 -97 c 1
 88 -97 92 -72 108 -57 c 1
 141 -61 l 1
 120 -81 123 -111 123 -111 c 1
 180 -135 155 -223 155 -223 c 1
 238 -223 l 2xbe
 249 -223 267 -215 272 -201 c 2
 276 -186 l 1
 273 -186 263 -194 243 -192 c 0
 157 -184 198 -45 290 -46 c 0
 352 -46 381 -75 372 -131 c 1
 349 -218 l 1
200 229 m 0
 200 229 l 0
 260 229 284 319 224 319 c 0
 166 319 141 229 200 229 c 0
261 -157 m 0
 261 -157 l 0
 309 -157 329 -83 281 -83 c 0
 230 -83 210 -157 261 -157 c 0
78 -132 m 1
 78 -132 58 -127 43 -127 c 0
 -2 -132 -18 -198 26 -198 c 0x7e
 49 -198 75 -170 78 -132 c 1
EndSplineSet
KernsSLIF: 212 46 1 0 215 46 1 0 214 46 1 0 213 46 1 0
Substitution: 0 65534 'nds0' uni0E10.descless
Substitution: 0 65534 'ndsc' uni0E10.descless
EndChar
StartChar: uni0E11
Encoding: 177 3601 145
Width: 780
Flags: W
HStem: 0 21G<287 362 596 674> 280 32<194 209> 399 34<227 240>
DStem: 258 524 276 593 310 452 327 515 413 461 493 461 287 0 416 184 421 591 401 524 327 515 310 452 584 498 613 482 416 184 362 0 722 468 799 464 596 0 674 0
Fore
413 461 m 1
 413 461 l 0
 422 495 422 524 401 524 c 1
 310 452 l 1
 258 524 l 1
 227 524 194 482 183 413 c 1
 183 413 203 433 238 433 c 0
 343 433 300 280 195 280 c 0
 108 280 120 390 152 470 c 0
 183 545 233 581 276 593 c 1
 327 515 l 1
 421 591 l 1
 485 587 515 536 493 461 c 1
 416 184 l 1
 584 498 l 1
 651 642 849 617 799 464 c 1
 674 0 l 1
 596 0 l 1
 722 468 l 1
 750 550 651 550 613 482 c 1
 362 0 l 1
 287 0 l 1
 413 461 l 1
204 312 m 0
 264 312 289 399 229 399 c 0
 170 399 149 312 204 312 c 0
EndSplineSet
EndChar
StartChar: uni0E12
Encoding: 178 3602 146
Width: 801
Flags: W
HStem: 0 21G<101 180 614 694> 257 36<319 326> 395 40<353 364>
DStem: 126 94 203 86 101 0 180 0 312 538 332 594 386 468 399 524 505 594 493 538 399 524 386 468 513 401 590 396 458 197 536 194
Fore
326 293 m 0
 326 293 l 0
 395 293 422 395 353 395 c 0
 289 395 261 293 326 293 c 0
422 63 m 0
 445 151 l 0
 406 152 366 72 389 49 c 0
 396 43 418 37 422 63 c 0
513 401 m 2
 535 482 533 515 493 538 c 1
 386 468 l 1
 312 538 l 1
 266 519 212 475 187 384 c 0
 181 359 184 301 194 272 c 0
 217 192 207 175 209 166 c 1
 233 200 335 257 321 257 c 0
 260 257 240 298 252 346 c 0
 255 358 286 433 364 435 c 0
 439 435 473 372 407 283 c 0
 349 206 233 169 203 86 c 1
 180 0 l 1
 101 0 l 1
 126 94 l 2
 160 220 117 298 140 384 c 0
 180 531 278 578 332 594 c 1
 399 524 l 1
 505 594 l 1
 556 582 630 547 590 396 c 2
 536 194 l 1
 536 194 627 158 639 88 c 1
 757 530 l 1
 825 588 l 1
 837 596 856 602 846 567 c 0
 846 565 707 45 694 0 c 1
 614 0 l 1
 622 58 567 131 524 151 c 1
 518 127 507 86 505 81 c 0
 493 32 468 -8 401 -8 c 0
 273 -8 335 190 458 197 c 1
 513 401 l 2
EndSplineSet
EndChar
StartChar: uni0E13
Encoding: 179 3603 147
Width: 800
Flags: W
HStem: -8 40<654 667> 392 44<214 235 214 372>
DStem: 502 410 584 416 392 0 499 101
Fore
743 181 m 0
 743 181 l 0
 739 169 725 160 725 160 c 1
 800 140 760 -8 654 -8 c 0
 611 -8 587 14 588 52 c 1
 585 94 625 132 625 132 c 1
 538 118 482 18 473 0 c 1
 392 0 l 1
 502 410 l 1
 554 607 280 570 214 436 c 1
 384 436 l 1
 372 392 l 1
 361 392 324 392 323 392 c 0
 278 392 264 335 264 335 c 1
 264 332 217 155 217 155 c 1
 372 203 343 -2 210 -8 c 0
 112 -12 114 69 124 109 c 2
 183 326 l 2
 197 376 235 392 235 392 c 1
 149 392 l 1
 224 645 636 679 584 416 c 1
 499 101 l 1
 499 101 562 177 660 169 c 1
 757 530 l 1
 823 588 l 1
 836 596 856 602 846 567 c 0
 846 565 746 194 743 181 c 0
665 32 m 0
 665 32 l 0
 725 32 748 121 688 121 c 0
 627 121 604 32 665 32 c 0
221 32 m 0
 284 32 307 121 244 121 c 0
 184 121 161 32 221 32 c 0
EndSplineSet
KernsSLIF: 212 -46 1 0 215 -46 1 0 214 -46 1 0 213 -46 1 0
EndChar
StartChar: uni0E14
Encoding: 180 3604 148
Width: 609
Flags: W
HStem: 0 21G<114 190 430 507> 273 36<345 352> 409 40<378 389> 551 47<416 435>
DStem: 138 94 214 86 114 0 190 0 536 396 613 396 430 0 507 0
Fore
507 0 m 1
 430 0 l 1
 536 396 l 2
 558 476 535 551 418 551 c 0
 358 551 237 516 201 384 c 0
 181 307 229 244 223 166 c 1
 247 203 359 273 347 273 c 0
 261 272 272 343 276 361 c 0
 281 378 309 447 389 449 c 0
 462 450 496 384 430 296 c 0
 372 220 246 169 214 86 c 1
 190 0 l 1
 114 0 l 1
 138 94 l 2
 172 220 131 298 154 384 c 0
 194 533 338 598 430 598 c 0
 468 598 667 594 613 396 c 1
 507 0 l 1
352 309 m 0
 419 309 445 409 378 409 c 0
 309 409 283 309 352 309 c 0
EndSplineSet
EndChar
StartChar: uni0E15
Encoding: 181 3605 149
Width: 609
Flags: W
HStem: 0 21G<114 190 430 507> 258 35<328 339> 395 40<367 378>
DStem: 138 94 210 74 114 0 190 0 330 538 350 594 404 468 418 524 524 594 511 538 418 524 404 468 542 416 613 396 430 0 507 0
Fore
507 0 m 1
 430 0 l 1
 542 416 l 2
 564 496 547 515 511 538 c 1
 404 468 l 1
 330 538 l 1
 292 528 226 475 201 384 c 0
 195 359 197 301 206 272 c 0
 230 192 224 166 229 174 c 0
 252 203 343 258 330 258 c 0
 250 258 257 326 263 347 c 0
 269 370 300 433 378 435 c 0
 450 435 484 372 418 283 c 0
 361 206 243 157 210 74 c 1
 190 0 l 1
 114 0 l 1
 138 94 l 2
 172 220 131 298 154 384 c 0
 192 527 290 574 350 594 c 1
 418 524 l 1
 524 594 l 1
 573 584 653 542 613 396 c 1
 507 0 l 1
339 293 m 0
 407 293 435 395 367 395 c 0
 300 395 272 293 339 293 c 0
EndSplineSet
EndChar
StartChar: uni0E16
Encoding: 182 3606 150
Width: 602
Flags: W
HStem: 0 21G<421 498> 392 44<212 370>
DStem: 531 410 610 416 421 0 498 0
Fore
498 0 m 1
 421 0 l 1
 531 410 l 1
 581 607 287 579 212 436 c 1
 382 436 l 1
 370 392 l 1
 359 392 323 392 321 392 c 0
 276 392 263 335 263 335 c 1
 263 332 215 155 215 155 c 1
 373 203 341 -2 210 -8 c 0
 111 -12 112 69 123 109 c 2
 181 326 l 1
 194 375 232 392 232 392 c 1
 147 392 l 1
 218 650 662 676 610 416 c 1
 498 0 l 1
221 32 m 0
 283 32 306 121 244 121 c 0
 183 121 160 32 221 32 c 0
EndSplineSet
EndChar
StartChar: uni0E17
Encoding: 183 3607 151
Width: 655
Flags: W
HStem: 0 21G<166 238 475 551> 418 37<235 246> 556 38<272 290>
DStem: 280 425 375 492 166 0 290 177 461 501 492 485 290 177 238 0 601 472 676 467 475 0 551 0
Fore
551 0 m 1
 475 0 l 1
 601 472 l 1
 627 551 531 553 492 485 c 1
 238 0 l 1
 166 0 l 1
 280 425 l 1
 266 418 249 418 237 418 c 0
 118 418 161 594 290 594 c 0
 410 594 378 502 375 492 c 2
 290 177 l 1
 461 501 l 2
 536 644 728 621 676 467 c 1
 551 0 l 1
244 455 m 0
 312 455 339 556 272 556 c 0
 203 556 175 455 244 455 c 0
EndSplineSet
EndChar
StartChar: uni0E18
Encoding: 184 3608 152
Width: 508
Flags: W
HStem: 0 45<64 306>
DStem: 146 439 207 472 401 370 465 401 195 364 273 364 109 45 187 45 416 321 496 332 361 114 436 108
Fore
416 321 m 1
 425 353 422 364 401 370 c 2
 146 439 l 1
 167 478 233 598 344 594 c 0
 412 594 527 527 594 582 c 0
 605 591 613 587 605 571 c 0
 542 461 439 490 424 496 c 0
 295 541 252 536 207 472 c 1
 465 401 l 1
 479 393 511 392 496 332 c 1
 436 108 l 1
 416 35 370 0 306 0 c 2
 52 0 l 1
 65 45 l 1
 109 45 l 1
 195 364 l 1
 273 364 l 1
 187 45 l 1
 263 45 l 2
 316 45 349 66 361 114 c 2
 416 321 l 1
EndSplineSet
EndChar
StartChar: uni0E19
Encoding: 185 3609 153
Width: 663
Flags: W
HStem: -8 40<501 517> 121 51<515 536> 418 38<235 246> 558 40<270 289>
DStem: 611 531 699 568 515 172 596 186
Fore
596 186 m 0
 596 186 l 0
 593 172 573 163 573 163 c 1
 651 138 608 -8 501 -8 c 0
 461 -8 438 15 436 54 c 0
 435 97 472 131 472 131 c 1
 338 132 250 15 238 0 c 1
 166 0 l 1
 280 427 l 1
 266 418 249 418 235 418 c 0
 115 415 160 598 289 598 c 0
 410 598 378 504 375 493 c 0
 375 492 263 77 263 77 c 1
 263 77 341 175 515 172 c 1
 611 531 l 1
 676 591 l 1
 687 598 710 605 699 568 c 1
 699 568 599 197 596 186 c 0
244 456 m 0
 244 456 l 0
 312 456 338 558 270 558 c 0
 201 558 175 456 244 456 c 0
513 32 m 0
 576 32 599 121 536 121 c 0
 476 121 453 32 513 32 c 0
EndSplineSet
KernsSLIF: 212 -46 1 0 215 -46 1 0 214 -46 1 0 213 -46 1 0
EndChar
StartChar: uni0E1A
Encoding: 186 3610 154
Width: 649
Flags: W
HStem: 0 45<122 441> 418 38<235 246> 558 38<270 290>
Fore
573 106 m 0
 573 106 l 0
 567 66 522 0 441 0 c 2
 111 0 l 1
 123 45 l 1
 178 45 l 1
 280 425 l 1
 270 421 249 418 237 418 c 0
 111 418 158 596 290 596 c 0
 410 596 378 504 375 493 c 0
 375 492 255 45 255 45 c 1
 412 45 l 2
 445 45 488 66 499 118 c 1
 610 531 l 1
 676 590 l 1
 688 598 708 604 697 568 c 0
 697 567 574 109 573 106 c 0
244 456 m 0
 312 456 338 558 270 558 c 0
 201 558 175 456 244 456 c 0
EndSplineSet
EndChar
StartChar: uni0E1B
Encoding: 187 3611 155
Width: 665
Flags: W
HStem: 0 45<119 456> 418 38<206 224> 558 38<240 257>
AnchorPoint: "AboveBase" 522.659 645.12 basechar 0
Fore
584 106 m 0
 584 106 l 0
 578 66 538 0 456 0 c 2
 111 0 l 1
 120 45 l 1
 175 45 l 1
 257 425 l 1
 247 421 226 418 214 418 c 0
 88 418 124 596 257 596 c 0
 376 596 350 504 347 493 c 0
 347 492 252 45 252 45 c 1
 424 45 l 2
 458 45 499 66 507 118 c 1
 676 911 l 1
 739 969 l 1
 751 977 771 983 762 948 c 0
 762 946 584 109 584 106 c 0
218 456 m 0
 286 456 307 558 240 558 c 0
 170 558 149 456 218 456 c 0
EndSplineSet
EndChar
StartChar: uni0E1C
Encoding: 188 3612 156
Width: 649
Flags: W
HStem: 0 21G<92 172 467 545>
DStem: 223 490 289 433 92 0 203 115 404 316 427 401 470 58 499 118 427 401 404 316 203 115 198 58
Fore
545 0 m 1
 467 0 l 1
 473 22 l 2
 479 43 472 51 470 58 c 1
 404 316 l 1
 198 58 l 1
 194 51 184 45 178 22 c 2
 172 0 l 1
 92 0 l 1
 223 490 l 2
 235 535 280 598 378 594 c 0
 502 590 421 379 289 433 c 1
 203 115 l 1
 427 401 l 1
 499 118 l 1
 608 530 l 1
 676 588 l 1
 688 596 708 602 697 567 c 0
 697 565 545 0 545 0 c 1
343 462 m 0
 407 462 433 559 369 559 c 0
 301 559 275 462 343 462 c 0
EndSplineSet
EndChar
StartChar: uni0E1D
Encoding: 189 3613 157
Width: 665
Flags: W
HStem: 0 21G<92 172 482 561>
DStem: 197 490 264 433 92 0 197 117 396 326 413 407 481 54 507 118 413 407 396 326 197 117 194 54 674 902 759 935 507 118 561 0
AnchorPoint: "AboveBase" 522.659 645.12 basechar 0
Fore
561 0 m 1
 482 0 l 1
 485 17 l 2
 490 38 482 46 481 54 c 1
 396 326 l 1
 194 54 l 1
 189 46 181 40 175 17 c 2
 172 0 l 1
 92 0 l 1
 197 490 l 2
 206 535 247 598 344 594 c 0
 470 590 401 379 264 433 c 1
 197 117 l 1
 413 407 l 1
 507 118 l 1
 674 902 l 1
 737 960 l 1
 748 968 768 974 759 935 c 2
 561 0 l 1
316 462 m 0
 381 462 401 559 336 559 c 0
 269 559 249 462 316 462 c 0
EndSplineSet
EndChar
StartChar: uni0E1E
Encoding: 190 3614 158
Width: 723
Flags: W
HStem: 0 21G<167 249 536 619> 416 39<236 252> 556 38<272 292>
VStem: 524 41<115.125 200.767 413.211 489.875>
DStem: 524 490 565 588 536 0 573 115 538 588 524 490 275 115 249 0
Fore
619 0 m 1
 536 0 l 1
 524 490 l 1
 249 0 l 1
 167 0 l 1
 281 424 l 1
 272 419 250 416 238 416 c 0
 118 416 163 594 292 594 c 0
 412 594 379 502 376 492 c 0
 375 490 275 115 275 115 c 1
 538 588 l 1
 565 588 l 1
 573 115 l 1
 685 535 l 1
 751 593 l 1
 765 601 783 607 773 571 c 0
 771 570 619 0 619 0 c 1
244 455 m 0
 312 455 339 556 272 556 c 0
 203 556 175 455 244 455 c 0
EndSplineSet
EndChar
StartChar: uni0E1F
Encoding: 191 3615 159
Width: 723
Flags: W
HStem: 0 21G<167 249 536 619> 416 39<213 222> 556 38<241 258>
DStem: 498 490 533 591 536 0 565 111 505 591 498 490 267 111 249 0 734 902 819 937 565 111 619 0
AnchorPoint: "AboveBase" 581.027 645.12 basechar 0
Fore
619 0 m 1
 536 0 l 1
 498 490 l 1
 249 0 l 1
 167 0 l 1
 258 424 l 1
 249 419 227 416 215 416 c 0
 95 416 129 594 258 594 c 0
 378 594 352 502 349 492 c 0
 349 490 267 111 267 111 c 1
 505 591 l 1
 533 591 l 1
 565 111 l 1
 734 902 l 1
 797 962 l 2
 805 969 826 975 819 937 c 2
 619 0 l 1
220 455 m 0
 287 455 309 556 241 556 c 0
 172 556 151 455 220 455 c 0
EndSplineSet
EndChar
StartChar: uni0E20
Encoding: 192 3616 160
Width: 619
Flags: W
HStem: -5 40<121 134> 392 44<229 392>
DStem: 218 332 296 341 174 166 227 83
Fore
516 0 m 0
 438 0 l 1
 548 410 l 1
 599 602 306 581 229 436 c 1
 404 436 l 1
 392 392 l 1
 355 392 l 2
 309 392 296 341 296 341 c 1
 227 83 l 1
 214 28 167 -5 121 -5 c 0
 8 -5 54 172 174 166 c 1
 218 332 l 2
 230 379 266 392 266 392 c 1
 164 392 l 1
 237 651 682 676 628 416 c 1
 628 416 525 37 516 0 c 0
132 35 m 0
 192 35 217 124 157 124 c 0
 94 124 69 35 132 35 c 0
EndSplineSet
EndChar
StartChar: uni0E21
Encoding: 193 3617 161
Width: 646
Flags: W
HStem: -5 214<158 221> 416 39<235 245> 556 38<270 290>
Fore
542 0 m 0
 462 0 l 0
 421 127 284 147 284 147 c 1
 261 51 243 -5 158 -5 c 0
 15 -6 81 210 221 209 c 1
 280 424 l 1
 269 418 249 416 237 416 c 0
 118 416 161 594 290 594 c 0
 410 594 378 502 375 492 c 0
 373 490 296 203 296 203 c 1
 296 203 422 174 487 80 c 1
 607 530 l 1
 674 590 l 1
 684 596 705 604 694 567 c 0
 694 565 554 45 542 0 c 0
243 455 m 0
 243 455 l 0
 310 455 338 556 270 556 c 0
 201 556 174 455 243 455 c 0
184 68 m 1
 207 157 l 1
 135 167 108 72 138 49 c 1
 147 45 178 38 184 68 c 1
EndSplineSet
EndChar
StartChar: uni0E22
Encoding: 194 3618 162
Width: 580
Flags: W
HStem: -8 54<281 300> 309 41<319 349> 422 39<324 335> 562 36<357 374>
Fore
518 154 m 1
 518 154 l 0
 490 52 398 -8 283 -8 c 0
 169 -8 100 52 129 158 c 1
 129 158 147 227 147 229 c 0
 167 287 210 313 247 324 c 1
 214 327 190 358 189 379 c 0
 186 422 197 470 223 510 c 0
 260 567 303 598 372 598 c 0
 485 598 441 425 326 422 c 0
 289 422 276 436 276 436 c 1
 263 389 280 350 330 350 c 2
 359 350 l 1
 349 309 l 1
 321 309 l 2
 278 309 238 276 226 232 c 1
 206 152 l 1
 187 86 226 46 298 46 c 0
 373 46 421 83 438 146 c 0
 439 151 545 542 542 531 c 1
 605 593 l 1
 617 601 641 607 628 568 c 1
 518 154 l 1
335 461 m 0
 404 461 432 562 362 562 c 0
 295 562 267 461 335 461 c 0
EndSplineSet
EndChar
StartChar: uni0E23
Encoding: 195 3619 163
Width: 462
Flags: W
HStem: -3 38<227 246> 138 37<260 273>
DStem: 149 442 206 472 346 387 407 416 359 344 442 367 310 163 372 101
Fore
574 576 m 0
 574 576 l 0
 519 468 424 501 422 502 c 0
 298 544 255 542 206 472 c 1
 407 416 l 2
 419 413 452 399 442 367 c 1
 372 101 l 2
 369 89 352 -3 229 -3 c 0
 100 -3 157 177 273 175 c 0
 286 175 301 174 310 163 c 1
 359 344 l 1
 367 364 369 381 346 387 c 2
 149 442 l 1
 169 476 240 594 343 594 c 0
 418 594 501 531 564 588 c 0
 573 596 585 594 574 576 c 0
235 35 m 0
 303 35 330 138 263 138 c 0
 194 138 166 35 235 35 c 0
EndSplineSet
KernsSLIF: 212 46 1 0 215 46 1 0 214 46 1 0 213 46 1 0
EndChar
StartChar: uni0E24
Encoding: 196 3620 164
Width: 597
Flags: W
HStem: 392 44<212 369>
Fore
449 -178 m 1
 382 -237 l 0
 369 -244 349 -250 359 -215 c 0
 366 -194 528 410 528 410 c 1
 579 601 293 582 212 436 c 1
 381 436 l 1
 369 392 l 1
 358 392 321 392 319 392 c 0
 275 392 261 333 261 333 c 1
 261 330 215 158 215 158 c 1
 372 204 339 2 207 -5 c 0
 109 -9 112 72 123 112 c 2
 180 324 l 1
 192 373 230 392 230 392 c 1
 147 392 l 1
 226 660 676 670 607 410 c 1
 449 -178 l 1
218 35 m 0
 281 35 306 124 243 124 c 0
 183 124 158 35 218 35 c 0
EndSplineSet
EndChar
StartChar: uni0E25
Encoding: 197 3621 165
Width: 579
Flags: W
HStem: 0 21G<399 476> 401 49<376 400>
DStem: 163 293 240 289 114 108 206 158 476 289 593 433 399 0 476 0
Fore
476 0 m 1
 399 0 l 1
 476 289 l 1
 495 353 453 401 386 401 c 0
 313 401 257 347 240 289 c 1
 206 158 l 1
 362 206 330 2 200 -5 c 0
 112 -8 103 66 114 108 c 2
 163 293 l 1
 184 372 275 450 378 450 c 0
 472 450 507 395 507 395 c 1
 550 521 452 539 398 539 c 0
 319 539 238 505 178 444 c 1
 157 467 l 1
 359 685 637 602 593 433 c 1
 476 0 l 1
206 32 m 0
 272 32 298 129 232 129 c 0
 166 129 140 32 206 32 c 0
EndSplineSet
EndChar
StartChar: uni0E26
Encoding: 198 3622 166
Width: 611
Flags: W
HStem: -5 40<98 111> 392 44<224 244 224 382>
DStem: 194 326 273 335 151 166 206 83
Fore
462 -178 m 1
 396 -237 l 0
 382 -244 362 -250 373 -215 c 0
 379 -194 542 410 542 410 c 1
 593 604 300 579 224 436 c 1
 395 436 l 1
 382 392 l 1
 335 392 l 2
 287 392 273 335 273 335 c 1
 206 83 l 1
 192 28 146 -5 98 -5 c 0
 -22 -5 26 172 151 166 c 1
 194 326 l 1
 206 375 244 392 244 392 c 1
 160 392 l 1
 237 659 690 670 621 410 c 1
 462 -178 l 1
109 35 m 0
 169 35 194 124 134 124 c 0
 74 124 49 35 109 35 c 0
EndSplineSet
EndChar
StartChar: uni0E27
Encoding: 199 3623 167
Width: 505
Flags: W
HStem: -5 36<275 292> 131 35<315 323> 545 53<344 376>
DStem: 439 438 518 438 364 155 433 118
Fore
433 118 m 1
 433 118 l 0
 412 41 369 -5 275 -5 c 0
 229 -5 204 32 214 77 c 0
 226 124 267 164 321 166 c 0
 343 166 350 163 364 155 c 1
 439 438 l 1
 458 502 410 545 344 545 c 0
 257 545 194 484 180 470 c 1
 147 479 l 1
 158 502 241 598 376 598 c 0
 472 598 544 531 518 438 c 1
 433 118 l 1
287 31 m 0
 355 31 382 131 315 131 c 0
 249 131 221 31 287 31 c 0
EndSplineSet
EndChar
StartChar: uni0E28
Encoding: 200 3624 168
Width: 589
Flags: W
HStem: 0 21G<101 180 412 488> 273 36<324 340> 407 37<356 374> 553 46<388 414>
DStem: 161 224 241 229 101 0 180 0 519 401 596 401 412 0 488 0
Fore
338 309 m 0
 338 309 l 0
 406 309 432 407 364 407 c 0
 298 407 272 309 338 309 c 0
525 473 m 0
 525 473 l 0
 516 535 461 553 393 553 c 0
 296 553 210 479 192 413 c 0
 180 369 184 335 210 321 c 1
 237 376 287 444 370 444 c 0
 401 444 421 432 430 415 c 1
 459 427 493 447 525 473 c 0
604 482 m 1
 607 461 605 433 596 401 c 1
 488 0 l 1
 412 0 l 1
 519 401 l 1
 521 409 522 415 524 422 c 1
 495 404 467 390 439 378 c 1
 438 330 393 273 324 273 c 0
 286 273 272 301 272 301 c 1
 257 280 246 246 241 229 c 2
 180 0 l 1
 101 0 l 1
 161 224 l 2
 172 266 118 310 146 413 c 0
 175 519 289 599 407 599 c 0
 482 599 550 584 584 536 c 1
 605 565 622 601 633 641 c 1
 633 641 708 642 708 641 c 0
 693 582 653 528 604 482 c 1
EndSplineSet
EndChar
StartChar: uni0E29
Encoding: 201 3625 169
Width: 665
Flags: W
HStem: 0 45<122 473> 346 41<370 382> 418 37<235 257> 556 38<273 290>
DStem: 278 425 300 212 177 45 255 45
Fore
246 455 m 0
 246 455 l 0
 313 455 341 556 273 556 c 0
 204 556 177 455 246 455 c 0
347 255 m 0
 347 255 l 0
 407 255 432 346 372 346 c 0
 310 346 286 255 347 255 c 0
300 212 m 0
 255 45 l 1
 435 45 l 2
 468 45 504 69 513 101 c 1
 550 240 l 1
 499 169 347 129 300 212 c 0
578 344 m 2
 627 530 l 1
 694 590 l 2
 702 596 725 602 713 567 c 0
 713 565 588 104 588 103 c 0
 579 51 535 0 473 0 c 2
 111 0 l 1
 123 45 l 1
 177 45 l 1
 278 425 l 1
 264 418 249 418 237 418 c 0
 118 418 161 594 290 594 c 0
 410 594 378 502 375 492 c 2
 375 492 344 379 344 378 c 1
 356 384 369 387 382 387 c 0
 422 389 456 367 453 329 c 0
 450 257 401 224 366 221 c 1
 450 178 559 273 578 344 c 2
EndSplineSet
EndChar
StartChar: uni0E2A
Encoding: 202 3626 170
Width: 579
Flags: W
HStem: 0 21G<399 476>
DStem: 157 270 233 266 114 108 206 158 467 250 591 429 399 0 476 0
Fore
206 32 m 0
 206 32 l 0
 272 32 298 129 232 129 c 0
 166 129 140 32 206 32 c 0
499 501 m 0
 499 501 l 0
 438 570 263 538 178 444 c 1
 157 467 l 1
 315 639 501 613 564 551 c 1
 590 576 616 607 633 641 c 1
 708 641 l 1
 685 588 639 545 590 510 c 1
 599 482 599 456 591 429 c 2
 476 0 l 1
 399 0 l 1
 467 250 l 1
 484 315 447 378 379 378 c 0
 307 378 250 324 233 266 c 1
 206 158 l 1
 362 206 330 2 200 -5 c 0
 112 -8 103 66 114 108 c 2
 157 270 l 2
 174 335 247 413 344 425 c 1
 392 442 447 467 499 501 c 0
406 424 m 1
 479 409 496 356 496 356 c 1
 499 369 513 418 515 422 c 0
 518 436 519 452 518 465 c 1
 476 445 435 430 406 424 c 1
EndSplineSet
EndChar
StartChar: uni0E2B
Encoding: 203 3627 171
Width: 654
Flags: W
HStem: 0 21G<157 235 472 550> 418 37<224 238> 556 38<260 283>
DStem: 272 432 366 492 157 0 300 244 272 432 264 109 157 0 235 0 573 376 653 384 472 0 550 0
Fore
550 0 m 1
 472 0 l 1
 573 376 l 2
 581 406 565 422 565 422 c 1
 430 352 306 190 293 172 c 0
 280 147 269 127 264 109 c 2
 235 0 l 1
 157 0 l 1
 272 432 l 1
 258 419 241 418 226 418 c 0
 111 418 151 594 283 594 c 0
 401 594 369 502 366 492 c 2
 300 244 l 1
 406 379 551 456 551 456 c 1
 519 508 574 594 648 594 c 0
 748 594 716 468 642 441 c 1
 642 441 662 418 653 384 c 2
 550 0 l 1
614 472 m 0
 614 472 l 0
 674 472 699 561 639 561 c 0
 581 561 556 472 614 472 c 0
232 455 m 0
 301 455 329 556 260 556 c 0
 192 556 164 455 232 455 c 0
EndSplineSet
EndChar
StartChar: uni0E2C
Encoding: 204 3628 172
Width: 715
Flags: W
HStem: 0 21G<158 237 531 611> 418 37<225 239> 475 41<657 667> 556 38<261 284> 607 38<689 702>
DStem: 273 432 369 492 158 0 269 121 488 425 524 556 531 0 565 126 524 556 488 425 269 121 237 0 659 475 746 502 565 126 611 0
Fore
876 659 m 1
 876 659 l 0
 840 536 746 502 746 502 c 1
 611 0 l 1
 531 0 l 1
 488 425 l 1
 237 0 l 1
 158 0 l 1
 273 432 l 1
 260 419 240 418 227 418 c 0
 112 418 152 594 284 594 c 0
 402 594 372 502 369 492 c 2
 269 121 l 1
 524 556 l 1
 565 126 l 1
 659 475 l 1
 541 475 585 645 702 645 c 0
 794 645 763 562 763 562 c 1
 803 607 806 639 809 659 c 1
 876 659 l 1
667 516 m 0
 667 516 l 0
 725 516 750 607 691 607 c 0
 631 607 607 516 667 516 c 0
233 455 m 0
 303 455 330 556 261 556 c 0
 194 556 166 455 233 455 c 0
EndSplineSet
EndChar
StartChar: uni0E2D
Encoding: 205 3629 173
Width: 580
Flags: W
HStem: -8 21G<238.5 301> 548 46<396 417>
DStem: 170 327 237 280 123 147 197 132 510 421 593 429 433 132 516 146
Fore
516 146 m 1
 516 146 l 0
 482 18 329 -8 273 -8 c 0
 204 -8 88 15 123 147 c 2
 170 327 l 2
 181 367 232 450 319 445 c 0
 449 439 370 230 237 280 c 1
 197 132 l 1
 164 5 396 2 433 132 c 1
 510 421 l 2
 527 484 493 548 398 548 c 0
 289 548 233 496 195 464 c 1
 172 485 l 1
 217 527 293 594 415 594 c 0
 547 594 617 519 593 429 c 2
 516 146 l 1
283 309 m 0
 352 309 378 409 309 409 c 0
 240 409 214 309 283 309 c 0
EndSplineSet
EndChar
StartChar: uni0E2E
Encoding: 206 3630 174
Width: 580
Flags: W
HStem: -8 21G<238.5 301> 553 43<387 408>
DStem: 510 421 593 429 433 132 516 146
Fore
648 602 m 1
 648 602 l 0
 631 567 614 542 588 516 c 1
 601 495 601 458 593 429 c 2
 516 146 l 1
 482 18 329 -8 273 -8 c 0
 204 -8 88 15 123 147 c 1
 147 243 l 2
 158 283 209 366 296 361 c 0
 425 355 347 146 214 195 c 1
 197 132 l 1
 164 5 396 2 433 132 c 1
 510 421 l 2
 513 432 521 450 518 461 c 1
 390 370 194 384 197 476 c 0
 200 544 318 596 406 596 c 0
 488 596 535 565 547 559 c 1
 556 571 562 584 567 602 c 1
 648 602 l 1
504 508 m 0
 504 508 l 0
 492 531 458 553 392 553 c 0
 344 553 244 530 244 481 c 0
 243 425 413 418 504 508 c 0
260 224 m 0
 329 224 356 324 287 324 c 0
 218 324 190 224 260 224 c 0
EndSplineSet
EndChar
StartChar: uni0E2F
Encoding: 207 3631 175
Width: 539
Flags: W
HStem: 556 38<267 278>
DStem: 472 465 584 591 349 3 427 3
Fore
427 3 m 1
 349 3 l 1
 472 465 l 1
 364 389 221 410 187 438 c 0
 127 490 192 594 276 594 c 0
 321 594 346 571 346 533 c 0
 347 492 315 462 315 462 c 1
 456 452 501 571 505 591 c 1
 584 591 l 1
 427 3 l 1
244 465 m 0
 304 465 329 556 269 556 c 0
 207 556 183 465 244 465 c 0
EndSplineSet
EndChar
StartChar: uni0E30
Encoding: 208 3632 176
Width: 460
Flags: W
HStem: 141 33<167 178> 551 33<276 289>
Fore
538 579 m 1
 538 579 l 0
 484 445 367 406 267 418 c 1
 267 418 181 424 186 492 c 0
 187 521 217 584 289 584 c 0
 326 584 349 564 347 527 c 0
 344 487 316 461 316 461 c 1
 396 455 452 499 476 579 c 1
 538 579 l 1
427 169 m 1
 427 169 l 0
 373 35 257 -3 157 8 c 1
 157 8 71 14 75 81 c 0
 77 111 106 174 178 174 c 0
 215 174 240 154 237 117 c 0
 233 77 207 51 207 51 c 1
 287 45 343 89 366 169 c 1
 427 169 l 1
257 468 m 0
 257 468 l 0
 312 468 333 551 278 551 c 0
 221 551 200 468 257 468 c 0
146 58 m 0
 201 58 224 141 169 141 c 0
 112 141 89 58 146 58 c 0
EndSplineSet
EndChar
StartChar: uni0E31
Encoding: 209 3633 177
Width: 0
Flags: W
HStem: 874 41<-86 -75>
AnchorPoint: "AboveMark" 99.7021 967.68 basemark 0
AnchorPoint: "AboveBase" 31.1396 645.12 mark 0
Fore
335 911 m 1
 335 911 l 0
 223 657 -69 625 -164 737 c 0
 -232 817 -158 917 -77 915 c 0
 -37 915 -5 895 -3 852 c 0
 0 774 -72 745 -72 745 c 1
 65 691 194 770 246 911 c 1
 335 911 l 1
-104 782 m 0
 -45 782 -25 874 -84 874 c 0
 -147 874 -167 782 -104 782 c 0
EndSplineSet
EndChar
StartChar: uni0E32
Encoding: 210 3634 178
Width: 427
Flags: W
HStem: 558 44<300 323>
DStem: 369 459 450 464 247 3 327 3
Fore
327 3 m 1
 247 3 l 1
 369 459 l 1
 384 515 361 558 300 558 c 0
 232 558 172 516 152 499 c 1
 164 542 l 1
 187 562 244 602 323 602 c 0
 427 602 475 558 450 464 c 2
 327 3 l 1
EndSplineSet
EndChar
StartChar: uni0E33
Encoding: 211 3635 179
Width: 427
Flags: W
HStem: 558 44<300 323> 685 43<52 65> 829 47<89 103>
DStem: 369 459 450 464 247 3 327 3
Fore
52 685 m 0
 52 685 l 0
 -75 685 -25 876 103 876 c 0
 229 876 178 685 52 685 c 0
327 3 m 1
 247 3 l 1
 369 459 l 1
 384 515 361 558 300 558 c 0
 232 558 172 516 152 499 c 1
 164 542 l 1
 187 562 244 602 323 602 c 0
 427 602 475 558 450 464 c 2
 327 3 l 1
127 779 m 0
 135 808 118 829 91 829 c 0
 61 829 34 808 26 779 c 0
 18 751 34 728 63 728 c 0
 91 728 120 751 127 779 c 0
EndSplineSet
MultipleSubs: 0 1 'ccmp' uni0E4D uni0E32
EndChar
StartChar: uni0E34
Encoding: 212 3636 180
Width: 0
Flags: W
AnchorPoint: "AboveMark" 61.3018 967.68 basemark 0
AnchorPoint: "AboveBase" 31.1396 645.12 mark 0
Fore
54 651 m 0
 54 651 l 0
 17 671 -58 713 -157 730 c 0
 -258 748 -324 737 -379 728 c 1
 -332 823 -226 900 -118 892 c 0
 11 883 75 796 54 651 c 0
12 717 m 1
 -6 808 -60 837 -131 843 c 0
 -198 849 -255 820 -292 777 c 1
 -249 782 -201 780 -147 773 c 0
 -61 760 12 717 12 717 c 1
EndSplineSet
EndChar
StartChar: uni0E35
Encoding: 213 3637 181
Width: 0
Flags: W
AnchorPoint: "AboveMark" 61.3018 967.68 basemark 0
AnchorPoint: "AboveBase" 31.1396 645.12 mark 0
Fore
0 849 m 0
 22 951 l 1
 97 951 l 5
 97 951 54 753 54 751 c 0
 60 722 58 688 54 651 c 1
 17 671 -58 713 -157 730 c 0
 -258 748 -324 737 -379 728 c 1
 -332 823 -226 900 -118 892 c 0
 -69 889 -29 874 0 849 c 0
12 717 m 1
 -6 808 -60 837 -131 843 c 0
 -198 849 -255 820 -292 777 c 1
 -249 782 -201 780 -147 773 c 0
 -61 760 12 717 12 717 c 1
EndSplineSet
EndChar
StartChar: uni0E36
Encoding: 214 3638 182
Width: 0
Flags: W
HStem: 906 45<44 60>
AnchorPoint: "AboveMark" 62.8379 967.68 basemark 0
AnchorPoint: "AboveBase" 31.1396 645.12 mark 0
Fore
54 651 m 0
 54 651 l 0
 0 684 -92 722 -169 731 c 1
 -270 748 -336 736 -378 728 c 1
 -336 822 -229 899 -120 894 c 1
 -75 889 -45 874 -45 874 c 1
 -43 892 -15 951 60 951 c 4
 170 951 143 802 46 780 c 1
 46 780 66 731 54 651 c 0
32 820 m 0
 32 820 l 0
 91 820 108 906 49 906 c 0
 -11 906 -28 820 32 820 c 0
12 717 m 1
 -6 808 -60 837 -131 843 c 0
 -198 849 -255 820 -292 777 c 1
 -249 782 -201 780 -147 773 c 0
 -61 760 12 717 12 717 c 1
EndSplineSet
EndChar
StartChar: uni0E37
Encoding: 215 3639 183
Width: 0
Flags: W
DStem: -106 951 -37 951 -124 876 -55 863 29 951 97 951 2 831 54 743
AnchorPoint: "AboveMark" -1.67383 967.68 basemark 0
AnchorPoint: "AboveBase" 31.1396 645.12 mark 0
Fore
55 648 m 0
 55 648 l 0
 -6 684 -81 714 -167 728 c 0
 -253 742 -315 737 -378 725 c 1
 -296 888 -124 876 -124 876 c 1
 -106 951 l 1
 -37 951 l 1
 -55 863 l 1
 -18 852 2 831 2 831 c 1
 29 951 l 1
 97 951 l 5
 54 743 l 1
 54 743 65 714 55 648 c 0
11 714 m 1
 -2 788 -49 823 -134 829 c 0
 -190 834 -252 816 -296 773 c 1
 -253 779 -207 776 -146 768 c 0
 -66 757 11 714 11 714 c 1
EndSplineSet
EndChar
StartChar: uni0E38
Encoding: 216 3640 184
Width: 0
Flags: W
HStem: -220 36<-266 -249>
DStem: -229 -214 -137 -155 -249 -307 -170 -307
AnchorPoint: "BelowBase" -119.141 -69.1201 mark 0
Fore
-170 -307 m 5
 -249 -307 l 1
 -229 -214 l 1
 -233 -215 -243 -220 -264 -220 c 0
 -364 -218 -335 -77 -233 -69 c 0
 -169 -66 -129 -95 -137 -155 c 1
 -170 -307 l 5
-258 -184 m 0
 -204 -184 -186 -104 -240 -104 c 0
 -293 -104 -312 -184 -258 -184 c 0
EndSplineSet
EndChar
StartChar: uni0E39
Encoding: 217 3641 185
Width: 0
Flags: W
HStem: -307 34<-283 -264> -206 28<-377 -370> -101 32<-357 -347>
DStem: -198 -69 -120 -69 -233 -238 -149 -212
AnchorPoint: "BelowBase" -119.141 -69.1201 mark 0
Fore
-149 -212 m 1
 -149 -212 l 0
 -161 -264 -203 -307 -264 -307 c 0
 -326 -307 -358 -275 -347 -226 c 2
 -343 -201 l 1
 -347 -203 -353 -206 -375 -206 c 0
 -472 -204 -444 -69 -347 -69 c 0
 -287 -69 -270 -106 -283 -157 c 1
 -300 -238 l 1
 -306 -257 -295 -273 -275 -273 c 0
 -253 -273 -238 -261 -233 -238 c 2
 -198 -69 l 1
 -120 -69 l 5
 -149 -212 l 1
-326 -140 m 0
 -321 -117 -335 -101 -355 -101 c 0
 -376 -101 -398 -117 -402 -140 c 0
 -407 -158 -393 -178 -372 -178 c 0
 -352 -178 -330 -158 -326 -140 c 0
EndSplineSet
EndChar
StartChar: uni0E3A
Encoding: 218 3642 186
Width: 0
Flags: W
AnchorPoint: "BelowBase" -116.854 -58.3682 mark 0
Fore
-175 -161 m 0
 -247 -161 -226 -55 -154 -55 c 0
 -86 -55 -109 -161 -175 -161 c 0
EndSplineSet
EndChar
StartChar: uni200B
Encoding: 220 8203 187
Width: 798
Flags: W
HStem: 0 60<111 621>
DStem: 111 60 154 -48 60 -183 126 -183 656 -52 745 60 628 -183 694 -183
Fore
694 -183 m 1
 628 -183 l 1
 656 -52 l 1
 662 -17 645 0 605 0 c 2
 215 0 l 2
 181 0 161 -15 154 -48 c 1
 126 -183 l 1
 60 -183 l 1
 111 60 l 1
 745 60 l 1
 694 -183 l 1
EndSplineSet
EndChar
StartChar: uni25CC
Encoding: 221 9676 188
Width: 649
Flags: W
HStem: 5 36<344 352> 41 39<203 210> 52 39<482 492> 134 36<121 131> 146 37<585 593> 276 37<648 656> 283 36<117 124> 412 37<642 650> 501 38<565 574> 508 37<310 318> 544 37<456 464>
VStem: 102 38<296 304> 627 38<425 433>
Fore
187 453 m 6
307 544 m 6
198 78 m 6
118 169 m 6
479 88 m 6
581 181 m 6
637 447 m 6
562 536 m 6
645 312 m 6
114 318 m 6
453 579 m 6
198 455 m 4,11,12
 207 455 213 448 213 441 c 0,13,14
 213 439 213 438 212 436 c 4,15,16
 210 425 201 416 190 416 c 4,17,18
 181 416 175 424 175 433 c 0,19,20
 175 436 l 4,21,22
 178 445 187 455 198 455 c 4,11,12
318 545 m 4,23,24
 328 545 335 539 335 530 c 0,25,26
 335 527 l 4,27,28
 333 518 321 508 310 508 c 4,29,30
 302 508 296 516 296 524 c 0,31,32
 296 527 l 4,33,34
 298 538 309 545 318 545 c 4,23,24
210 80 m 4,35,36
 219 80 226 72 226 64 c 0,37,38
 226 61 l 4,39,40
 223 51 212 41 203 41 c 4,41,42
 194 41 187 48 187 57 c 0,43,44
 187 58 187 60 187 61 c 4,45,46
 189 71 200 80 210 80 c 4,35,36
131 170 m 4,47,48
 139 170 145 165 145 157 c 0,49,50
 145 156 145 154 144 152 c 4,51,52
 143 141 132 134 121 134 c 4,53,54
 112 134 107 140 107 148 c 0,55,56
 107 149 107 151 108 152 c 4,57,58
 111 163 120 170 131 170 c 4,47,48
492 91 m 4,59,60
 501 91 506 84 506 75 c 0,61,62
 506 73 506 72 505 71 c 4,63,64
 504 61 493 52 482 52 c 4,65,66
 474 52 468 60 468 68 c 0,67,68
 468 71 l 4,69,70
 470 81 482 91 492 91 c 4,59,60
593 183 m 4,71,72
 603 183 608 177 608 168 c 0,73,74
 608 167 608 165 608 164 c 4,75,76
 605 154 596 146 585 146 c 4,77,78
 576 146 571 151 571 159 c 0,79,80
 571 161 571 162 571 164 c 4,81,82
 573 175 582 183 593 183 c 4,71,72
650 449 m 4,83,84
 659 449 665 442 665 433 c 0,85,86
 665 430 l 4,87,88
 662 419 653 412 642 412 c 4,89,90
 633 412 627 417 627 425 c 0,91,92
 627 426 628 428 628 430 c 4,93,94
 630 441 639 449 650 449 c 4,83,84
574 539 m 4,95,96
 584 539 590 532 590 522 c 0,97,98
 590 519 l 4,99,100
 588 510 576 501 565 501 c 4,101,102
 557 501 551 508 551 516 c 0,103,104
 551 519 l 4,105,106
 553 530 565 539 574 539 c 4,95,96
656 313 m 4,107,108
 666 313 673 307 673 298 c 0,109,110
 673 295 l 4,111,112
 670 284 659 276 648 276 c 4,113,114
 640 276 634 282 634 290 c 0,115,116
 634 292 634 293 634 295 c 4,117,118
 636 306 647 313 656 313 c 4,107,108
124 319 m 4,119,120
 134 319 140 313 140 304 c 0,121,122
 140 301 l 4,123,124
 137 292 127 283 117 283 c 4,125,126
 108 283 102 289 102 296 c 0,127,128
 102 298 102 299 103 301 c 4,129,130
 104 312 114 319 124 319 c 4,119,120
352 41 m 4,131,132
 361 41 366 36 366 28 c 0,133,134
 366 27 366 25 366 23 c 4,135,136
 364 12 355 5 344 5 c 4,137,138
 336 5 329 11 329 20 c 0,139,140
 329 23 l 4,141,142
 332 34 343 41 352 41 c 4,131,132
464 581 m 4,143,144
 474 581 479 573 479 565 c 0,145,146
 479 562 l 4,147,148
 476 551 467 544 456 544 c 4,149,150
 448 544 442 549 442 557 c 0,151,152
 442 559 442 561 442 562 c 4,153,154
 444 571 455 581 464 581 c 4,143,144
EndSplineSet
EndChar
StartChar: uni0E3F
Encoding: 223 3647 189
Width: 752
Flags: W
HStem: -106 144<335 376> 2 18<40 65.4547> 2 36<324 347> 3 17<37 40> 359 40<353 433> 359 363<343 433> 707 15<224 231>
DStem: 312 637 419 650 164 88 353 399 312 637 343 359 164 88 272 100 336 2 407 3 310 -106 376 -106 433 359 499 349 347 38 418 45 519 684 587 674 444 399 515 406 558 822 624 822 530 723 599 720
Fore
714 200 m 0x42
 714 200 l 0
 680 77 564 11 407 3 c 1x12
 376 -106 l 1
 310 -106 l 1x80
 336 2 l 1x20
 37 3 l 1x10
 40 20 l 1
 131 20 155 54 164 88 c 2
 312 637 l 1
 321 670 315 705 224 707 c 1
 229 722 l 1
 261 722 527 723 530 723 c 1
 558 822 l 1
 624 822 l 1
 599 720 l 1
 722 708 800 656 770 541 c 0
 746 450 671 404 584 382 c 1
 582 376 l 1
 671 359 742 304 714 200 c 0x42
662 536 m 0
 662 536 l 0
 682 614 650 659 587 674 c 1
 515 406 l 1
 588 422 642 467 662 536 c 0
444 399 m 1x08
 519 684 l 0
 456 687 429 682 419 650 c 1
 353 399 l 1
 444 399 l 1x08
347 38 m 0x84
 433 359 l 0x88
 424 359 343 359 343 359 c 1
 272 100 l 2
 261 60 269 38 347 38 c 0x84
594 203 m 0
 619 292 567 333 499 349 c 1
 418 45 l 1
 501 58 567 100 594 203 c 0
EndSplineSet
EndChar
StartChar: uni0E40
Encoding: 224 3648 190
Width: 337
Flags: W
HStem: -5 40<198 211> 127 39<231 244>
Fore
198 -5 m 0
 198 -5 l 0
 131 -5 111 54 126 109 c 1
 240 535 l 1
 307 593 l 1
 321 601 341 607 330 571 c 0
 329 570 221 164 221 164 c 1
 221 164 235 166 244 166 c 0
 355 166 312 -5 198 -5 c 0
209 35 m 0
 272 35 296 127 233 127 c 0
 172 127 147 35 209 35 c 0
EndSplineSet
EndChar
StartChar: uni0E41
Encoding: 225 3649 191
Width: 609
Flags: W
HStem: -5 40<198 211 468 481> 127 39<231 244 502 515>
Fore
468 -5 m 0
 468 -5 l 0
 401 -5 381 54 396 109 c 1
 510 535 l 1
 578 593 l 1
 591 601 611 607 601 571 c 0
 599 570 492 164 492 164 c 1
 492 164 505 166 515 166 c 0
 625 166 582 -5 468 -5 c 0
198 -5 m 0
 198 -5 l 0
 131 -5 111 54 126 109 c 1
 240 535 l 1
 307 593 l 1
 321 601 341 607 330 571 c 0
 329 570 221 164 221 164 c 1
 221 164 235 166 244 166 c 0
 355 166 312 -5 198 -5 c 0
479 35 m 0
 479 35 l 0
 542 35 567 127 504 127 c 0
 442 127 418 35 479 35 c 0
209 35 m 0
 272 35 296 127 233 127 c 0
 172 127 147 35 209 35 c 0
EndSplineSet
EndChar
StartChar: uni0E42
Encoding: 226 3650 192
Width: 331
Flags: W
HStem: -5 40<224 237> 127 39<259 270>
DStem: 172 836 233 860 301 757 373 770 321 700 398 694 161 106 257 164
Fore
578 909 m 0
 578 909 l 0
 502 777 413 845 412 845 c 0
 301 914 267 895 233 860 c 1
 373 770 l 2
 389 760 415 743 398 694 c 1
 257 164 l 1
 263 167 267 166 270 166 c 0
 379 166 335 -5 224 -5 c 0
 152 -5 147 51 161 106 c 1
 321 700 l 1
 327 719 332 739 301 757 c 2
 172 836 l 1
 190 862 258 955 336 958 c 0
 406 962 510 865 567 919 c 1
 578 926 585 923 578 909 c 0
235 35 m 0
 295 35 319 127 260 127 c 0
 198 127 174 35 235 35 c 0
EndSplineSet
EndChar
StartChar: uni0E43
Encoding: 227 3651 193
Width: 362
Flags: W
HStem: -5 40<244 257> 127 37<278 290> 679 40<220 232> 793 36<251 263> 908 50<321 344>
DStem: 372 811 450 808 183 106 278 164
Fore
244 -5 m 0
 244 -5 l 0
 175 -5 169 51 183 106 c 1
 372 811 l 2
 386 862 370 906 321 908 c 0
 263 908 221 868 203 803 c 1
 223 826 253 829 263 829 c 0
 364 829 323 679 220 679 c 0
 144 679 149 768 167 828 c 1
 195 900 258 958 344 958 c 0
 438 958 473 892 450 808 c 2
 278 164 l 1
 280 164 286 166 290 166 c 0
 399 166 358 -5 244 -5 c 0
252 793 m 0
 252 793 l 0
 227 793 210 777 204 756 c 0
 200 740 204 719 230 719 c 0
 281 719 300 793 252 793 c 0
255 35 m 0
 318 35 343 127 280 127 c 0
 217 127 192 35 255 35 c 0
EndSplineSet
EndChar
StartChar: uni0E44
Encoding: 228 3652 194
Width: 403
Flags: W
HStem: -5 40<290 303> 127 37<323 336> 654 37<246 264> 919 39<421 452>
DStem: 235 909 298 931 187 734 243 720 339 866 381 883 301 720 339 730 439 883 511 871 230 106 323 164
Fore
290 -5 m 0
 290 -5 l 0
 221 -5 217 51 230 106 c 1
 439 883 l 2
 445 905 438 919 421 919 c 0
 399 919 386 900 381 883 c 2
 339 730 l 2
 329 688 298 654 246 654 c 0
 195 653 175 690 187 734 c 2
 235 909 l 1
 237 919 241 929 230 945 c 0
 221 957 215 958 204 971 c 1
 197 983 214 992 224 983 c 1
 287 962 l 1
 306 949 301 942 298 931 c 2
 243 720 l 2
 238 703 246 691 264 691 c 0
 280 691 295 702 301 720 c 1
 339 866 l 2
 353 917 390 958 452 958 c 0
 511 958 522 914 511 871 c 1
 323 164 l 1
 327 164 333 166 336 166 c 0
 447 166 404 -5 290 -5 c 0
301 35 m 0
 366 35 390 127 326 127 c 0
 264 127 240 35 301 35 c 0
EndSplineSet
EndChar
StartChar: uni0E45
Encoding: 229 3653 195
Width: 304
Flags: W
HStem: 558 44<177 200>
DStem: 246 459 327 464 66 -214 155 -177
Fore
155 -177 m 1
 88 -235 l 1
 75 -243 55 -249 66 -214 c 0
 72 -192 246 459 246 459 c 1
 261 515 238 558 177 558 c 0
 109 558 49 516 29 499 c 1
 41 542 l 1
 65 562 121 602 200 602 c 0
 304 602 352 558 327 464 c 1
 155 -177 l 1
EndSplineSet
EndChar
StartChar: uni0E46
Encoding: 230 3654 196
Width: 703
Flags: W
HStem: 263 32<408 420> 382 34<440 452>
DStem: 641 464 717 464 459 -214 545 -177
Fore
545 -177 m 1
 481 -235 l 0
 468 -243 449 -249 459 -214 c 0
 465 -192 641 464 641 464 c 2
 651 504 641 518 619 524 c 1
 527 455 l 1
 518 468 473 524 473 524 c 1
 421 499 392 429 390 399 c 1
 390 399 422 416 452 416 c 0
 553 413 511 263 410 263 c 0
 323 263 323 350 343 424 c 0
 358 479 415 565 493 598 c 1
 547 528 l 1
 639 599 l 1
 731 598 734 527 717 464 c 2
 545 -177 l 1
418 295 m 0
 476 295 501 382 442 382 c 0
 384 382 359 295 418 295 c 0
EndSplineSet
EndChar
StartChar: uni0E47
Encoding: 231 3655 197
Width: 0
Flags: W
HStem: 668 94<-255 -254.7> 757 57<-193 -181>
AnchorPoint: "AboveMark" -153.18 645.12 mark 0
AnchorPoint: "AboveBase" 6.56445 645.12 mark 0
Fore
143 1028 m 1x80
 143 1028 l 0
 120 919 37 868 -111 892 c 0
 -181 905 -224 903 -250 837 c 0
 -263 806 -261 773 -255 762 c 1x80
 -255 762 -241 814 -181 814 c 0x40
 -120 814 -115 753 -89 739 c 1
 -89 739 -91 748 -89 756 c 0
 -68 862 91 860 68 753 c 0
 55 696 5 667 -31 668 c 0x80
 -147 671 -134 759 -190 757 c 0x40
 -238 756 -250 685 -240 668 c 1
 -280 668 l 1
 -316 705 -338 785 -300 865 c 0
 -278 911 -232 963 -84 943 c 0
 5 931 51 935 65 1028 c 1
 143 1028 l 1x80
29 753 m 0
 41 809 -43 809 -55 753 c 0
 -66 699 18 699 29 753 c 0
EndSplineSet
EndChar
StartChar: uni0E48
Encoding: 232 3656 198
Width: 0
Flags: W
AnchorPoint: "AboveMark" 65.9102 967.68 mark 0
Fore
157 1210 m 5
 103 1009 l 1
 49 1009 l 1
 78 1210 l 1
 157 1210 l 5
EndSplineSet
Substitution: 0 65534 'loww' uni0E48.low
Substitution: 0 65534 'amni' uni0E4D
EndChar
StartChar: uni0E49
Encoding: 233 3657 199
Width: 0
Flags: W
HStem: 1063 37<26 39> 1184 34<48 65>
AnchorPoint: "AboveMark" 150.39 967.68 mark 0
Fore
392 1213 m 1
 392 1213 l 0
 333 1040 138 951 -35 978 c 1
 -29 1008 l 1
 -18 1011 25 1032 46 1066 c 1
 46 1066 l 1
 46 1066 38 1063 29 1063 c 0
 -78 1063 -43 1218 63 1218 c 0
 138 1218 126 1143 126 1143 c 1
 109 1061 54 1021 54 1021 c 1
 49 1017 l 1
 144 1025 280 1087 312 1213 c 1
 392 1213 l 1
37 1100 m 0
 92 1100 111 1184 55 1184 c 0
 -5 1184 -23 1100 37 1100 c 0
EndSplineSet
Substitution: 0 65534 'loww' uni0E49.low
Substitution: 0 65534 'amni' uni0E4D
EndChar
StartChar: uni0E4A
Encoding: 234 3658 200
Width: 0
Flags: W
HStem: 1172 54<68 80>
AnchorPoint: "AboveMark" 98.166 967.68 mark 0
Fore
382 1229 m 1
 382 1229 l 0
 361 1091 267 1009 141 992 c 5
 147 1017 l 1
 209 1051 226 1158 178 1172 c 1
 114 1134 l 1
 68 1172 l 1
 31 1172 -6 1129 -8 1091 c 1
 -8 1091 8 1123 57 1123 c 0
 95 1123 117 1092 111 1060 c 0
 101 1020 72 989 29 989 c 0
 -34 989 -61 1043 -46 1115 c 0
 -35 1166 28 1226 80 1226 c 1
 80 1226 123 1180 124 1180 c 2
 187 1224 l 1
 296 1195 255 1094 224 1051 c 1
 290 1089 319 1157 318 1229 c 1
 382 1229 l 1
78 1055 m 0
 89 1106 14 1106 3 1055 c 0
 -8 1006 68 1006 78 1055 c 0
EndSplineSet
Substitution: 0 65534 'loww' uni0E4A.low
Substitution: 0 65534 'amni' uni0E4D
EndChar
StartChar: uni0E4B
Encoding: 235 3659 201
Width: 0
Flags: W
HStem: 1080 58<-38 55 131 221>
DStem: 55 1080 115 1080 38 992 95 992 68 1140 131 1140 -38 1138 233 1138 84 1229 151 1229 68 1140 131 1140
AnchorPoint: "AboveMark" 59.7656 967.68 mark 0
Fore
221 1081 m 5
 115 1080 l 1
 95 992 l 1
 38 992 l 1
 55 1080 l 1
 -51 1081 l 1
 -38 1138 l 1
 68 1140 l 1
 84 1229 l 1
 151 1229 l 1
 131 1140 l 1
 233 1138 l 1
 221 1081 l 5
EndSplineSet
MinimumDistance: x6,11 x5,0 
Substitution: 0 65534 'loww' uni0E4B.low
Substitution: 0 65534 'amni' uni0E4D
EndChar
StartChar: uni0E4C
Encoding: 236 3660 202
Width: 0
Flags: W
HStem: 902 29<21 30>
AnchorPoint: "AboveMark" 18.8672 890.88 mark 0
Fore
289 1143 m 1
 289 1143 l 0
 233 1043 78 1041 86 1038 c 0
 146 1009 104 902 23 902 c 4
 -26 902 -49 932 -40 975 c 0
 -28 1035 29 1069 103 1081 c 0
 129 1086 220 1118 233 1172 c 1
 289 1143 l 1
28 931 m 0
 84 931 101 1014 45 1014 c 0
 -11 1014 -28 931 28 931 c 0
EndSplineSet
Substitution: 0 65534 'loww' uni0E4C.low
EndChar
StartChar: uni0E4D
Encoding: 237 3661 203
Width: 0
Flags: W
HStem: 668 43<-2 11> 813 46<29 41>
AnchorPoint: "AboveMark" -4.18848 645.12 mark 0
AnchorPoint: "AboveMark" 64.374 967.68 basemark 0
AnchorPoint: "AboveBase" 31.1396 645.12 mark 0
Fore
0 668 m 0
 0 668 l 0
 -127 668 -86 859 41 859 c 0
 167 859 126 668 0 668 c 0
71 762 m 0
 77 791 58 813 31 813 c 0
 2 813 -25 791 -31 762 c 0
 -35 734 -20 711 9 711 c 0
 37 711 66 734 71 762 c 0
EndSplineSet
Substitution: 0 65534 'G006' uni0E4B
Substitution: 0 65534 'G005' uni0E4A
Substitution: 0 65534 'G004' uni0E49
Substitution: 0 65534 'G003' uni0E48
EndChar
StartChar: uni0E4E
Encoding: 238 3662 204
Width: 0
Flags: W
AnchorPoint: "AboveBase" 31.1396 645.12 mark 0
Fore
275 865 m 2
 201 923 141 862 154 816 c 1
 154 816 155 805 152 800 c 0
 141 788 104 759 89 762 c 0
 86 762 83 765 83 765 c 1
 32 831 -63 765 -31 696 c 1
 -31 696 -23 685 -31 680 c 0
 -41 674 -72 654 -83 651 c 0
 -89 650 -94 657 -94 657 c 1
 -161 762 15 903 106 806 c 1
 108 808 l 1
 83 908 233 980 310 900 c 1
 310 900 312 897 309 892 c 0
 304 882 290 862 278 863 c 0
 276 863 275 865 275 865 c 2
EndSplineSet
EndChar
StartChar: uni0E4F
Encoding: 239 3663 205
Width: 737
Flags: W
HStem: -2 54<363 397> 164 43<413 429> 276 20G<691 691> 296 21G<582 582 793 793> 382 47<470 484> 539 55<507 530>
Fore
793 296 m 0
 793 296 l 0
 740 101 530 -2 369 -2 c 0
 203 -2 51 101 103 296 c 0
 155 492 362 594 528 594 c 0
 690 594 845 492 793 296 c 0
691 296 m 0
 691 296 l 0
 727 430 647 539 513 539 c 0
 376 539 240 430 204 296 c 0
 167 163 246 52 382 52 c 0
 516 52 654 163 691 296 c 0
582 296 m 0
 582 296 l 0
 561 218 484 164 413 164 c 0
 338 164 292 218 313 296 c 0
 335 376 409 429 484 429 c 0
 554 429 604 376 582 296 c 0
511 296 m 0
 522 341 516 382 472 382 c 0
 427 382 396 341 386 296 c 0
 373 252 379 207 424 207 c 0
 468 207 499 252 511 296 c 0
EndSplineSet
EndChar
StartChar: uni0E50
Encoding: 240 3664 206
Width: 645
Flags: W
HStem: -8 45<313 347> 430 45<425 452>
Fore
650 232 m 0
 650 232 l 0
 613 92 467 -8 321 -8 c 0
 170 -8 77 89 115 233 c 0
 152 373 300 475 450 475 c 0
 596 475 688 373 650 232 c 0
571 233 m 0
 599 336 547 430 438 430 c 0
 326 430 223 341 194 232 c 0
 166 126 224 37 332 37 c 0
 439 37 544 132 571 233 c 0
EndSplineSet
EndChar
StartChar: uni0E51
Encoding: 241 3665 207
Width: 645
Flags: W
HStem: 430 45<433 454>
Fore
656 232 m 0
 656 232 l 0
 622 104 519 0 392 -29 c 1
 362 -14 l 1
 504 32 553 146 578 233 c 0
 610 353 541 430 435 430 c 0
 329 430 224 352 192 232 c 0
 132 8 336 0 382 115 c 1
 382 115 367 95 327 95 c 0
 275 95 253 137 266 181 c 0
 278 230 324 269 378 269 c 0
 449 269 467 214 452 152 c 0
 390 -74 34 -65 112 232 c 0
 154 386 304 475 447 475 c 0
 587 475 697 384 656 232 c 0
395 183 m 0
 410 238 327 238 312 183 c 0
 296 127 379 127 395 183 c 0
EndSplineSet
EndChar
StartChar: uni0E52
Encoding: 242 3666 208
Width: 645
Flags: W
HStem: 0 45<202 484>
DStem: 195 551 270 551 81 126 157 124
Fore
662 232 m 0
 662 232 l 0
 648 180 639 146 621 104 c 0
 594 46 570 0 472 0 c 2
 194 0 l 2
 92 0 61 54 81 126 c 1
 195 551 l 2
 220 644 214 664 214 664 c 1
 214 703 240 696 252 687 c 1
 278 641 l 1
 278 641 290 622 270 551 c 1
 157 124 l 2
 143 74 170 45 210 45 c 2
 478 45 l 2
 518 45 535 71 547 95 c 1
 574 166 570 160 590 233 c 0
 611 318 628 402 587 412 c 0
 556 418 508 350 492 312 c 0
 476 275 435 270 439 313 c 0
 442 352 432 418 398 412 c 0
 359 404 316 327 309 235 c 1
 309 235 326 253 358 253 c 0
 472 250 421 83 312 83 c 0
 246 83 230 131 233 184 c 0
 244 353 327 475 409 472 c 0
 470 470 482 401 478 364 c 1
 482 364 l 1
 498 401 548 470 610 472 c 0
 700 473 694 352 662 232 c 0
375 166 m 0
 390 223 306 223 290 166 c 0
 276 112 361 112 375 166 c 0
EndSplineSet
EndChar
StartChar: uni0E53
Encoding: 243 3667 209
Width: 645
Flags: W
HStem: -8 21G<163 217.5> 412 61<319 338>
Fore
538 412 m 0
 538 412 l 0
 487 406 436 316 416 238 c 0
 412 223 409 214 404 197 c 0
 395 160 346 161 355 197 c 0
 359 212 362 223 366 237 c 0
 393 339 370 412 323 412 c 0
 275 412 190 352 174 137 c 1
 174 137 200 163 237 163 c 0
 287 163 310 123 298 77 c 0
 286 31 243 -8 192 -8 c 0
 134 -8 103 32 98 86 c 0
 86 224 157 473 338 473 c 0
 418 473 424 370 424 370 c 1
 425 370 l 1
 472 450 519 473 568 473 c 0
 731 473 699 253 565 11 c 1
 519 0 l 2
 505 -2 482 -8 498 25 c 0
 631 286 621 421 538 412 c 0
255 75 m 0
 270 132 186 132 170 75 c 0
 155 20 240 20 255 75 c 0
EndSplineSet
EndChar
StartChar: uni0E54
Encoding: 244 3668 210
Width: 645
Flags: W
HStem: 421 47<485 510>
Fore
479 257 m 0
 479 257 l 0
 493 312 409 312 395 257 c 0
 379 200 464 200 479 257 c 0
573 46 m 0
 579 46 598 49 604 49 c 0
 625 49 607 29 607 29 c 1
 582 0 l 1
 582 0 493 0 406 3 c 0
 364 5 330 -2 287 -5 c 0
 170 -11 77 78 120 243 c 0
 161 398 296 472 418 472 c 0
 456 472 465 468 493 468 c 0
 587 468 677 536 717 690 c 1
 782 670 l 2
 788 668 793 664 786 650 c 0
 743 519 633 421 485 421 c 0
 467 421 436 424 418 424 c 0
 298 424 224 329 200 243 c 0
 170 134 190 35 324 45 c 0
 338 46 347 48 362 48 c 0
 384 48 409 45 409 45 c 1
 350 69 295 140 321 235 c 0
 341 309 410 349 465 344 c 0
 515 339 536 304 522 252 c 0
 504 186 416 146 375 184 c 1
 364 146 456 37 573 46 c 0
EndSplineSet
EndChar
StartChar: uni0E55
Encoding: 245 3669 211
Width: 645
Flags: W
HStem: 422 189<418 508>
Fore
479 257 m 0
 479 257 l 0
 493 312 409 312 395 257 c 0
 379 200 464 200 479 257 c 0
538 507 m 0
 538 507 l 0
 559 587 441 587 419 507 c 0
 415 488 418 478 422 470 c 1
 444 467 492 467 516 472 c 1
 527 481 535 492 538 507 c 0
716 690 m 1
 782 670 l 2
 788 668 793 664 786 650 c 0
 742 515 627 422 493 421 c 0
 473 421 436 422 418 422 c 0
 298 422 224 329 200 243 c 0
 170 134 190 35 324 45 c 0
 338 46 347 48 362 48 c 0
 384 48 410 43 410 43 c 1
 353 68 295 140 321 235 c 0
 341 309 410 349 465 344 c 0
 515 339 536 304 522 252 c 0
 504 186 416 146 375 184 c 1
 364 146 456 37 573 46 c 0
 579 46 598 49 604 49 c 0
 625 49 607 29 607 29 c 1
 582 0 l 1
 582 0 493 0 406 3 c 0
 364 5 330 -2 287 -5 c 0
 170 -11 77 78 120 243 c 0
 160 390 281 456 375 468 c 1
 372 479 370 492 373 505 c 0
 390 570 449 611 508 611 c 0
 571 611 602 568 585 505 c 0
 584 496 579 490 574 485 c 1
 614 508 682 553 716 690 c 1
EndSplineSet
EndChar
StartChar: uni0E56
Encoding: 246 3670 212
Width: 645
Flags: W
HStem: -8 45<302 335> 430 45<405 439>
Fore
433 475 m 0
 433 475 l 0
 590 475 684 381 644 230 c 0
 607 94 490 -8 309 -8 c 0
 20 -8 104 280 267 280 c 0
 319 280 343 238 329 190 c 0
 316 146 276 104 221 104 c 0
 194 104 186 120 186 120 c 1
 183 72 247 37 319 37 c 0
 430 37 535 118 564 230 c 0
 596 349 528 430 421 430 c 0
 378 430 315 419 266 393 c 0
 252 386 220 393 233 435 c 1
 263 544 258 610 235 674 c 0
 233 680 233 691 247 691 c 2
 324 691 l 1
 333 664 341 564 304 453 c 1
 338 468 390 475 433 475 c 0
286 192 m 0
 301 247 217 247 201 192 c 0
 187 135 272 135 286 192 c 0
EndSplineSet
EndChar
StartChar: uni0E57
Encoding: 247 3671 213
Width: 645
Flags: W
HStem: -8 21G<141 199> 418 54<284 300>
Fore
766 671 m 0
 766 671 l 0
 785 430 631 43 459 -2 c 1
 459 -2 390 -18 409 22 c 2
 409 22 445 97 467 146 c 0
 559 355 525 418 487 418 c 0
 445 418 407 366 389 326 c 0
 381 312 373 287 370 275 c 0
 356 240 318 238 323 275 c 1
 327 290 330 313 330 327 c 0
 335 370 321 418 284 418 c 0
 250 418 172 367 152 138 c 1
 152 138 180 163 218 163 c 0
 267 163 292 124 280 78 c 0
 267 32 224 -8 174 -8 c 0
 108 -8 81 38 80 94 c 0
 77 281 157 465 300 472 c 0
 343 473 373 427 367 362 c 1
 372 362 l 1
 396 427 461 473 501 472 c 0
 630 465 622 284 475 52 c 1
 475 52 515 68 542 109 c 0
 639 249 713 459 687 641 c 1
 736 687 l 1
 750 702 765 710 766 671 c 0
233 75 m 0
 249 132 166 132 151 75 c 0
 135 20 218 20 233 75 c 0
EndSplineSet
EndChar
StartChar: uni0E58
Encoding: 248 3672 214
Width: 645
Flags: W
HStem: -3 21G<426 490> 289 47<574 590> 424 49<397 416>
Fore
662 240 m 0
 662 240 l 0
 628 71 527 -3 453 -3 c 0
 399 -3 304 6 326 152 c 1
 295 134 253 48 233 -6 c 1
 169 -8 58 69 106 243 c 0
 149 398 281 473 402 473 c 0
 432 473 467 468 490 468 c 0
 576 468 667 542 702 690 c 1
 768 668 l 2
 774 667 779 662 774 648 c 0
 730 519 611 421 493 421 c 0
 464 421 441 424 416 424 c 0
 290 424 212 338 186 241 c 0
 164 160 169 95 214 61 c 1
 214 61 264 192 344 220 c 1
 386 214 l 1
 329 2 524 0 571 166 c 1
 490 143 462 200 475 246 c 0
 490 303 539 336 590 336 c 0
 662 336 671 284 662 240 c 0
607 247 m 0
 613 272 599 289 576 289 c 0
 551 289 530 272 524 247 c 0
 518 223 530 206 554 206 c 0
 578 206 601 223 607 247 c 0
EndSplineSet
EndChar
StartChar: uni0E59
Encoding: 249 3673 215
Width: 645
Flags: W
HStem: -9 41<237 251> 115 45<270 284> 346 60<602 616>
Fore
301 74 m 0
 301 74 l 0
 307 97 292 115 270 115 c 0
 247 115 224 97 218 74 c 0
 212 51 226 32 249 32 c 0
 270 32 295 51 301 74 c 0
459 362 m 1
 462 356 473 327 476 318 c 0
 519 190 544 40 544 40 c 1
 556 -8 478 -29 465 20 c 1
 465 20 435 178 406 275 c 0
 369 390 321 439 249 398 c 0
 184 361 166 204 210 124 c 1
 210 124 238 160 284 160 c 0
 333 160 356 123 344 74 c 0
 332 31 284 -9 237 -9 c 0
 197 -9 164 11 141 51 c 0
 75 167 103 369 229 442 c 0
 260 461 366 496 427 407 c 1
 436 439 476 467 510 467 c 0
 587 468 570 406 614 406 c 0
 664 406 711 501 731 687 c 1
 806 664 l 1
 814 664 814 659 811 650 c 0
 768 449 694 346 602 346 c 0
 533 346 544 412 505 413 c 0
 478 415 462 389 459 362 c 1
EndSplineSet
EndChar
StartChar: uni0E5A
Encoding: 250 3674 216
Width: 731
Flags: W
HStem: 0 21G<347 425 539 617> 556 38<267 278>
DStem: 472 465 584 591 347 0 425 0 697 591 776 591 539 0 617 0
Fore
425 0 m 1
 347 0 l 1
 472 465 l 1
 366 382 221 410 187 438 c 0
 127 490 192 594 276 594 c 0
 321 594 346 571 346 533 c 0
 347 492 315 462 315 462 c 1
 456 452 501 571 505 591 c 1
 584 591 l 1
 425 0 l 1
244 465 m 0
 244 465 l 0
 304 465 329 556 269 556 c 0
 207 556 183 465 244 465 c 0
697 591 m 1
 776 591 l 1
 617 0 l 1
 539 0 l 1
 697 591 l 1
EndSplineSet
EndChar
StartChar: uni0E5B
Encoding: 251 3675 217
Width: 1474
Flags: W
HStem: 210 42<422 442> 280 26<396 409> 401 26<422 430>
Fore
1538 335 m 1
 1435 332 l 0
 1419 332 1412 330 1404 315 c 0
 1378 260 1312 261 1321 323 c 0
 1327 358 1292 347 1292 326 c 0
 1292 263 1243 204 1170 192 c 0
 1164 190 1143 190 1149 203 c 0
 1189 281 1210 376 1172 435 c 1
 1169 435 l 1
 1186 378 1141 218 1035 170 c 1
 1035 170 1011 157 989 157 c 0
 974 157 986 175 986 175 c 1
 1028 278 1044 427 1001 473 c 1
 998 473 l 1
 1015 390 965 187 806 123 c 1
 806 123 788 117 782 115 c 0
 771 112 760 121 765 131 c 0
 790 187 843 418 777 530 c 1
 774 530 l 1
 791 465 777 366 745 293 c 0
 713 218 601 66 404 49 c 0
 227 34 98 155 147 338 c 0
 203 547 370 637 504 619 c 0
 624 602 671 524 636 392 c 0
 614 309 525 210 425 210 c 0
 350 210 306 263 329 347 c 0
 341 395 384 427 430 427 c 0
 475 427 501 396 488 349 c 0
 475 298 429 280 409 280 c 2
 392 281 l 1
 395 264 404 252 438 252 c 0
 481 252 539 303 562 390 c 0
 584 468 582 559 490 573 c 0
 393 587 280 487 240 336 c 0
 200 192 283 69 415 91 c 0
 627 124 734 409 728 561 c 0
 727 587 757 593 771 587 c 0
 799 574 806 564 813 558 c 0
 912 464 889 312 816 167 c 1
 820 167 l 1
 886 215 954 381 963 504 c 1
 963 504 966 531 992 522 c 0
 1008 518 1021 508 1021 508 c 2
 1134 449 1071 284 1026 198 c 1
 1029 198 l 1
 1087 249 1132 393 1141 464 c 1
 1141 464 1141 485 1166 478 c 0
 1181 473 1187 465 1187 465 c 2
 1273 416 1250 316 1190 224 c 1
 1193 224 l 2
 1220 237 1247 283 1261 329 c 0
 1279 392 1364 392 1353 330 c 0
 1347 300 1370 300 1382 329 c 0
 1399 364 1415 362 1444 361 c 2
 1544 358 l 1
 1538 335 l 1
436 349 m 0
 441 369 447 401 424 401 c 0
 402 401 387 372 381 349 c 0
 375 326 378 306 396 306 c 0
 415 306 430 324 436 349 c 0
EndSplineSet
EndChar
StartChar: uni0E38.low
Encoding: 252 63256 218
Width: 0
Flags: W
HStem: -378 31<-284 -276>
DStem: -255 -372 -169 -323 -284 -492 -215 -492
Fore
-215 -492 m 1
 -284 -492 l 1
 -255 -372 l 1
 -258 -372 -269 -378 -284 -378 c 0
 -372 -375 -339 -250 -249 -246 c 0
 -192 -243 -163 -264 -169 -323 c 1
 -215 -492 l 1
-276 -347 m 0
 -229 -347 -209 -275 -257 -275 c 0
 -304 -275 -324 -347 -276 -347 c 0
EndSplineSet
EndChar
StartChar: uni0E39.low
Encoding: 253 63257 219
Width: 0
Flags: W
HStem: -493 29<-308 -298> -367 26<-383 -368> -273 27<-363 -349>
DStem: -352 -361 -298 -323 -364 -421 -327 -432 -220 -250 -151 -250 -267 -432 -192 -409
Fore
-192 -409 m 1
 -192 -409 l 0
 -209 -455 -244 -493 -298 -493 c 0
 -352 -493 -376 -464 -364 -421 c 1
 -352 -361 l 1
 -356 -362 -364 -367 -381 -367 c 0
 -467 -366 -435 -246 -349 -246 c 0
 -296 -246 -284 -278 -298 -323 c 1
 -327 -432 l 1
 -335 -449 -324 -464 -306 -464 c 0
 -287 -464 -273 -449 -267 -432 c 1
 -220 -250 l 1
 -151 -250 l 1
 -192 -409 l 1
-335 -307 m 0
 -329 -287 -341 -273 -359 -273 c 0
 -378 -273 -398 -287 -404 -307 c 0
 -409 -324 -395 -341 -376 -341 c 0
 -358 -341 -339 -324 -335 -307 c 0
EndSplineSet
EndChar
StartChar: uni0E3A.low
Encoding: 254 63258 220
Width: 0
Flags: W
Fore
-209 -318 m 0
 -264 -318 -243 -233 -187 -233 c 0
 -132 -233 -154 -318 -209 -318 c 0
EndSplineSet
EndChar
StartChar: multiply
Encoding: 256 215 222
Width: 619
Flags: W
DStem: 215 456 273 502 338 286 398 333 338 286 373 238 121 117 157 69 373 238 433 286 498 68 556 115 613 502 647 456 398 333 433 286
Fore
556 115 m 1
 498 68 l 1
 373 238 l 1
 157 69 l 1
 121 117 l 1
 338 286 l 1
 215 456 l 1
 273 502 l 1
 398 333 l 1
 613 502 l 1
 647 456 l 1
 433 286 l 1
 556 115 l 1
EndSplineSet
EndChar
StartChar: divide
Encoding: 257 247 223
Width: 546
Flags: W
HStem: 14 104<276 306> 224 57<107 574> 387 106<378 406>
Fore
444 439 m 0
 444 439 l 0
 435 409 407 387 378 387 c 0
 349 387 332 413 339 439 c 0
 347 468 375 493 406 493 c 0
 435 493 452 472 444 439 c 0
574 224 m 1
 92 224 l 1
 108 281 l 1
 590 281 l 1
 574 224 l 1
344 66 m 0
 335 34 306 14 276 14 c 0
 247 14 230 37 240 66 c 0
 246 92 275 118 306 118 c 0
 335 118 352 95 344 66 c 0
EndSplineSet
EndChar
StartChar: registered
Encoding: 258 174 224
Width: 735
Flags: W
HStem: -11 42<355 393> 154 13<265 404> 315 17<407 439> 492 13<357 380 358 508.175> 611 42<519 557>
DStem: 387 462 444 452 315 197 412 335 387 462 407 315 315 197 376 198
Fore
779 323 m 0
 779 323 l 0
 730 138 545 -11 367 -11 c 0
 186 -11 81 138 131 323 c 0
 180 504 364 653 545 653 c 0
 723 653 828 504 779 323 c 0
733 323 m 0
 733 323 l 0
 774 476 685 611 535 611 c 0
 381 611 218 476 177 323 c 0
 135 164 224 31 378 31 c 0
 528 31 691 164 733 323 c 0
582 154 m 1
 521 154 l 0
 493 154 490 194 482 230 c 0
 464 306 479 316 407 315 c 1
 376 198 l 2
 370 175 369 169 393 169 c 2
 407 167 l 1
 404 154 l 1
 263 154 l 1
 266 167 l 1
 275 167 l 2
 300 169 307 169 315 197 c 2
 387 462 l 1
 393 488 392 492 364 492 c 2
 355 492 l 1
 358 505 l 1
 516 505 l 2
 594 505 628 481 613 422 c 0
 598 369 550 336 498 329 c 1
 496 323 l 1
 533 315 539 273 545 241 c 0
 554 206 551 169 585 167 c 1
 582 154 l 1
550 415 m 0
 564 467 542 492 492 492 c 2
 470 490 l 2
 452 490 447 467 444 452 c 1
 412 335 l 1
 432 332 l 1
 485 332 533 349 550 415 c 0
EndSplineSet
EndChar
